<?xml version="1.0" encoding="UTF-8" standalone="no" ?>
<!DOCTYPE svg PUBLIC "-//W3C//DTD SVG 1.1//EN" "http://www.w3.org/Graphics/SVG/1.1/DTD/svg11.dtd">
<svg xmlns="http://www.w3.org/2000/svg" xmlns:xlink="http://www.w3.org/1999/xlink" version="1.1" width="500" height="500" viewBox="0 0 500 500" xml:space="preserve">
<desc>Created with Fabric.js 3.6.3</desc>
<defs>
</defs>
<rect x="0" y="0" width="100%" height="100%" fill="#ffffff"></rect>
<g transform="matrix(3.266767961797265 0 0 3.266767961797265 250.00000000000003 250)"  >
<g style=""   >
		<g transform="matrix(1 0 0 1 0 0)" clip-path="url(#CLIPPATH_1594)"  >
<clipPath id="CLIPPATH_1594" >
	<rect transform="matrix(1 0 0 1 0 0)" x="-74.935" y="-63.275" rx="0" ry="0" width="149.87" height="126.55" />
</clipPath>
<g style=""   >
		<g transform="matrix(1 0 0 1 0.20000000000000284 0.009438072051899837)"  >
<path style="stroke: none; stroke-width: 1; stroke-dasharray: none; stroke-linecap: butt; stroke-dashoffset: 0; stroke-linejoin: miter; stroke-miterlimit: 4; fill: rgb(0,0,0); fill-rule: nonzero; opacity: 1;"  transform=" translate(-75.135, -63.2844380720519)" d="M 75 30.62 A 32.59 32.59 0 0 1 99.22 41.4 h 6.71 l 5 -0.18 l 5 0.18 A 46.45 46.45 0 0 0 34 41.4 l 8.47 0.09 l 8.22 -0.16 A 32.9 32.9 0 0 1 75 30.62 Z M 100 84.23 A 32.61 32.61 0 0 1 75 95.94 A 31.79 31.79 0 0 1 50.2 84.48 l -4.66 -0.14 l -7.72 0.2 l -4 0.06 A 45.61 45.61 0 0 0 75 109.72 a 46.44 46.44 0 0 0 41.45 -25.49 h -4.14 l -2.54 0.25 L 105 84.23 l -3 0.19 Z" stroke-linecap="round" />
</g>
		<g transform="matrix(1 0 0 1 0.11499999999998067 42.38541000009977)"  >
<path style="stroke: none; stroke-width: 1; stroke-dasharray: none; stroke-linecap: butt; stroke-dashoffset: 0; stroke-linejoin: miter; stroke-miterlimit: 4; fill: rgb(0,0,0); fill-rule: nonzero; opacity: 1;"  transform=" translate(-75.04999999999998, -105.66041000009977)" d="M 131.07 85.12 a 4.34 4.34 0 0 0 -0.51 0 c -0.56 0 -1.12 0 -1.68 0.08 l -0.87 0 a 1.72 1.72 0 0 0 0.25 0.09 A 4.21 4.21 0 0 0 128 86 c -0.16 0.09 -0.22 -0.44 -0.23 -0.7 l 0.07 0 a 4.6 4.6 0 0 1 -1.71 -0.19 l -0.21 -0.1 c -0.67 1.57 -1.42 3.11 -2.23 4.62 h 0 c 0 0.18 0.07 0.21 0.07 0.35 a 0.32 0.32 0 0 1 -0.18 -0.16 l -0.06 0.1 c 0.13 0.11 0.38 0.09 0.47 0.24 c -0.07 0.1 -0.31 0 -0.23 0.29 a 0.47 0.47 0 0 1 -0.42 -0.19 a 54.9 54.9 0 0 1 -3.61 5.67 c -0.32 0.44 -0.67 0.84 -1 1.27 l 0.34 0.18 c 0 0.06 -0.08 0.11 0 0.12 a 1.11 1.11 0 0 1 -0.62 0.07 c -0.5 0.63 -1 1.27 -1.49 1.87 H 117 c -0.05 0.22 0.07 0.28 0.06 0.47 c -0.21 -0.09 0 0.2 -0.18 0.18 s -0.2 -0.21 -0.16 -0.4 c -0.36 0.41 -0.74 0.8 -1.11 1.2 l 0 0 c -0.07 0.16 -0.24 0.08 -0.12 0.29 q -0.1 0 -0.12 -0.06 c -0.06 0 0 0.08 -0.06 0.12 s 0 0 0 0 a 1.59 1.59 0 0 0 -0.13 0.13 s 0 0.1 0.11 0.1 s -0.12 0 -0.12 0.12 c 0 -0.16 -0.1 -0.11 -0.15 0 a 0.27 0.27 0 0 1 0.15 0 c 0.2 0.3 -0.11 0.35 -0.23 0.22 a 0.25 0.25 0 0 1 -0.07 -0.17 h 0 a 55.82 55.82 0 0 1 -7.35 6.46 l 0.37 0 v 0.36 c 0.24 -0.25 0 -0.45 -0.12 -0.53 c 0.37 0.07 0.4 0 0.59 -0.18 c 0.24 0.11 0.4 0.07 0.58 0.3 c -0.23 0.36 -0.69 0.15 -0.82 0.59 a 1.41 1.41 0 0 1 -0.41 0 c -0.13 0 0 0.2 -0.06 0.29 c -0.11 -0.27 -0.12 -0.11 -0.11 0.18 c -0.16 0 -0.23 -0.17 -0.35 -0.24 a 3 3 0 0 0 0.08 -0.57 l -0.64 0.45 c 0 0.21 -0.07 0.43 -0.27 0.36 c 0 -0.07 0.07 0 0.12 -0.07 a 0.17 0.17 0 0 0 -0.13 -0.1 l -0.43 0.3 c 0.08 0 0.12 0.12 0.21 0.16 a 0.74 0.74 0 0 1 -0.44 0 c -0.43 0.28 -0.86 0.56 -1.3 0.83 c 0 0.08 0 0.08 -0.27 0.17 c -0.86 0.54 -1.74 1 -2.63 1.54 c 0 0.09 0 0.19 0.23 0.21 l 0.41 -0.17 c 0.2 0 0 0.12 0.06 0.17 c 0.18 0.3 0.85 0.09 1 0.47 c 0.14 -0.12 0.42 0 0.59 0.06 c 0 0.15 -0.19 0.13 -0.18 0.29 c -0.35 -0.29 -1.19 -0.1 -1.41 -0.53 a 0.55 0.55 0 0 0 -0.41 0.18 a 3.34 3.34 0 0 0 0.23 0.82 c -0.2 0 -0.31 -0.1 -0.47 0 c -0.41 -0.35 -0.3 -0.85 -0.34 -1.34 l -0.46 0.24 a 0.18 0.18 0 0 0 0.1 0 c 0 0.06 -0.07 0.05 -0.12 0.06 s 0.07 0 0.12 0.06 s -0.22 0.07 -0.3 0 a 55 55 0 0 1 -25.67 6.29 a 56.06 56.06 0 0 1 -6.6 -0.39 c 0 0.09 -0.07 0.18 0 0.2 s -0.34 -0.11 -0.18 0.18 c -0.41 0 -0.67 0.15 -1 -0.06 c 0.19 0.09 0.25 -0.09 0.47 -0.12 c 0 -0.07 -0.1 -0.09 -0.12 -0.17 s 0.17 0 0.29 -0.1 l -0.52 -0.07 c 0.09 0.08 0.17 0.3 0.06 0.4 s -0.15 -0.17 -0.29 -0.17 s 0.06 -0.15 0 -0.26 a 54.83 54.83 0 0 1 -24.75 -10 A 55.57 55.57 0 0 1 30.07 95.86 a 54.21 54.21 0 0 1 -5.2 -8.81 s -0.06 0.08 -0.09 0.08 c -0.19 0 -0.15 -0.29 -0.06 -0.39 s -0.13 -0.28 -0.2 -0.42 a 0.71 0.71 0 0 1 -0.63 -0.08 c -0.42 0.37 -0.2 0.74 -0.67 1.11 c -0.13 -0.51 -0.36 -1 0.23 -1.55 l 0.44 0.44 c 0.23 -0.15 0.13 -0.3 0 -0.44 c 0.12 -0.18 0.24 -0.15 0.35 -0.07 c -0.08 -0.2 -0.17 -0.39 -0.26 -0.58 a 1.81 1.81 0 0 1 -0.76 0.16 a 21.7 21.7 0 0 1 -2.16 -0.43 c 0 0.11 -0.19 0.12 -0.28 0 l 0 0 A 1.52 1.52 0 0 0 20 85 l -0.33 0.18 a 0.9 0.9 0 0 1 0.18 0.15 c 0.23 0.46 -0.22 0.25 -0.44 0 v 0 l -0.68 0.36 l 0.13 0.19 a 6 6 0 0 1 0.5 0.41 c 0.28 0.1 0.61 0.06 1.16 0.16 a 1 1 0 0 1 -0.38 0.6 q 0.15 0.15 0.3 0.33 c 0.52 -0.68 1 -0.18 1 0.41 a 1 1 0 0 1 -0.55 0.1 a 12.58 12.58 0 0 1 0.92 1.37 c 0.17 -0.08 0.35 -0.08 0.52 0.31 l -0.22 0.21 c 0.06 0.1 0.12 0.2 0.17 0.3 A 13.3 13.3 0 0 1 23 91.6 l 0.05 0 a 0.76 0.76 0 0 1 0.05 0.33 c 1 2.78 0.92 5.47 -0.45 7 c 0.37 0.54 0.74 1.08 1.13 1.6 s 0.78 1 1.17 1.56 a 4.36 4.36 0 0 1 0.51 -0.17 c 0 -0.11 0.07 -0.12 0.18 -0.06 c 1.69 -0.38 3.81 0.32 5.81 1.74 h 0 v 0 A 14.56 14.56 0 0 1 33.16 105 a 12.86 12.86 0 0 1 2.65 3.77 c 0.32 0.11 0.47 0.84 0.52 1 l -0.13 0.06 a 4.85 4.85 0 0 1 0 3.43 l 1.56 1.18 l 1.6 1.12 a 4.33 4.33 0 0 1 2.3 -1 l -0.4 -0.35 l 0.67 -0.67 a 1.46 1.46 0 0 0 0.45 0.89 s 0 0 0 0 a 11.84 11.84 0 0 1 5.81 1.4 c 3.35 1.73 5.68 4.49 5.4 6.93 c 0.61 0.22 1.23 0.44 1.85 0.63 s 1.25 0.39 1.87 0.58 c 1.21 -2.14 4.72 -3 8.45 -2.44 s 6.79 2.52 7.29 4.92 l 1.94 0 l 2 0 a 4.28 4.28 0 0 1 1.13 -2 c -0.22 -0.18 -0.24 -0.55 -0.62 -0.57 c -0.14 -0.47 -0.6 -0.63 -0.77 -1.06 l 0.94 -0.17 c -0.24 0.23 0.22 0.84 0.77 0.94 c 0 0.25 -0.14 0.37 -0.12 0.64 h 0 a 11.19 11.19 0 0 1 6 -2.68 a 16.88 16.88 0 0 1 1.84 -0.15 a 0.5 0.5 0 0 0 -0.1 -0.28 c 0.11 -0.07 0.24 -0.11 0.17 -0.35 a 0.42 0.42 0 0 0 0.18 0.06 a 0.77 0.77 0 0 0 0.11 0.46 c -0.11 0 -0.13 0 -0.15 0.11 c 2.91 0 5.41 0.85 6.39 2.59 c 0.63 -0.19 1.25 -0.37 1.88 -0.58 s 1.23 -0.41 1.85 -0.63 a 1.82 1.82 0 0 1 0 -0.33 s 0 0.09 0 0.13 c -0.2 0 -0.26 -0.24 -0.58 -0.17 c -0.13 0.12 -0.09 0.42 -0.36 0.41 c -0.06 -0.21 -0.37 -0.17 -0.41 -0.41 c 0.1 0 0.1 0.06 0.18 0.06 c -0.16 -0.19 0 -0.32 -0.12 -0.41 c 0.06 -0.07 0.11 0 0.3 -0.06 a 0.23 0.23 0 0 0 -0.12 -0.12 c 0.06 -0.09 0.27 0 0.29 -0.17 c 0.32 0.12 0.37 0.51 0.86 0.46 a 4.11 4.11 0 0 1 0.08 -0.6 s 0 0 0 0 s 0 -0.06 0.08 -0.08 s 0.07 -0.31 0.12 -0.47 c -0.16 0 -0.3 -0.08 -0.27 -0.33 c 0.26 0 0.23 -0.17 0.42 -0.18 a 0.18 0.18 0 0 0 0.05 0.07 a 5 5 0 0 1 0.3 -0.62 a 0.07 0.07 0 0 1 0.06 -0.08 l 0 0 c -0.06 -0.13 -0.35 0 -0.33 -0.26 a 0.51 0.51 0 0 1 0.46 0.08 a 7.18 7.18 0 0 1 0.69 -0.9 s 0 0 0 0 c 0.09 -0.15 0.31 -0.19 0.18 -0.41 a 0.64 0.64 0 0 1 0.26 0 a 12.11 12.11 0 0 1 2.15 -1.72 v -0.07 h 0.14 c 0.34 -0.21 0.69 -0.42 1.06 -0.61 l 0.81 -0.37 c 0 -0.12 0.12 -0.19 0.16 -0.3 c 0.08 0.15 0.18 -0.1 0.23 0.06 c 0.1 0 -0.09 -0.28 0.18 -0.23 c -0.09 0.08 0 0.15 0 0.24 a 12.15 12.15 0 0 1 1.94 -0.57 c 0 -0.26 -0.28 -0.65 -0.1 -0.85 c 0.13 0 0.37 0.22 0.41 0.12 c 0.12 0.14 0.11 0.42 0.18 0.61 a 7.91 7.91 0 0 1 3.16 0.06 a 0.22 0.22 0 0 0 0 -0.38 h 0.36 c 0 0.2 0 0.37 0.11 0.41 a 0.12 0.12 0 0 1 0 0.12 l 0.17 0.07 c 0.26 -0.14 0.54 -0.06 0.73 -0.42 a 1.38 1.38 0 0 0 0.41 0.17 c 0 0.17 -0.09 0.16 -0.06 0.3 c -0.22 0 -0.48 0 -0.53 -0.12 c 0 0 0 0.15 -0.08 0.26 a 2.73 2.73 0 0 1 0.24 0.17 a 0.94 0.94 0 0 1 -0.1 -0.14 c 0.14 -0.11 0.28 0.16 0.47 0.18 c 0 -0.15 -0.09 -0.18 -0.18 -0.23 s 0.06 0 0.06 0 s 0.18 0 0.18 -0.18 c 0.06 0 0 0.12 0.11 0.12 s -0.06 0 -0.06 0 c -0.16 0.1 -0.05 0.15 -0.05 0.35 c -0.11 0 -0.12 0.06 -0.06 0.06 h -0.13 c 0.07 0.06 0.17 0.1 0.25 0.17 c 0.53 -0.37 1.07 -0.74 1.59 -1.12 l 0.92 -0.7 a 2.11 2.11 0 0 0 -0.93 0.17 c 0.16 -0.27 -0.29 0 -0.35 -0.12 c -0.17 0.1 0 0.19 -0.12 0.3 c 0 -0.06 -0.06 -0.23 -0.24 -0.3 c 0 -0.1 0.22 -0.2 -0.06 -0.17 c 0 -0.11 0.08 -0.13 0.06 -0.24 c 0.18 0 0.18 0.1 0.36 0.06 v 0.3 c 0.15 0.06 0.15 -0.29 0.17 0 c 0.14 -0.07 0.19 -0.21 0.18 -0.42 c -0.06 0 0 0.07 -0.06 0.12 c -0.21 0 -0.41 -0.41 -0.59 -0.12 c -0.42 0 0.14 -0.4 -0.23 -0.41 c 0.18 -0.29 -0.1 -0.65 0.23 -0.94 c 0 -0.08 -0.08 -0.18 -0.23 -0.18 c 0.15 -0.24 0.25 0.13 0.47 0.07 c -0.08 0.25 0.13 0.45 0.06 0.64 a 1.51 1.51 0 0 1 0.53 0.29 c -0.14 0.09 -0.12 0.13 -0.06 0.3 c 0.1 -0.25 0.49 0.11 0.59 -0.18 c 0.13 0 0.13 0.23 0.29 0.24 a 2.59 2.59 0 0 0 0 0.55 l 0.58 -0.44 a 0.06 0.06 0 0 0 0 0 s 0 0 0 0 a 0.08 0.08 0 0 0 0 0 a 4 4 0 0 1 -0.24 -0.84 c -0.22 0 -0.45 0.08 -0.59 0 s 0.26 0 0.17 -0.17 a 0.85 0.85 0 0 0 0.4 -0.1 a 8 8 0 0 1 1.64 -5 a 0.41 0.41 0 0 1 0 -0.26 a 1.11 1.11 0 0 0 0.29 -0.08 c 0.1 -0.13 0.19 -0.26 0.29 -0.38 a 0.79 0.79 0 0 1 -0.11 -0.54 c 0.18 0 0.11 0.17 0.3 0.12 c 0 -0.19 -0.26 -0.14 -0.24 -0.35 a 0.43 0.43 0 0 0 0.35 0 c 0 0.25 -0.11 0.38 -0.14 0.55 a 13.36 13.36 0 0 1 1 -1.06 a 10.72 10.72 0 0 1 6 -3.28 c 0.21 -0.32 0.52 -0.57 0.75 -1 c -0.07 -0.09 -0.19 -0.12 -0.17 -0.29 a 0.88 0.88 0 0 0 0.58 -0.42 a 1 1 0 0 1 0.41 0.3 c -0.18 0.33 -0.27 0.57 -0.64 0.7 c -0.08 0.35 0.23 0.32 0.23 0.59 c 0.18 0 0 -0.12 0 -0.24 s 0.13 0.08 0.24 0.07 c -0.21 0.13 0 0 0 0.28 h 0 c 0.15 -0.19 0.7 -0.28 0.7 0 c 0.36 -0.41 0.22 -0.9 0.18 -1.36 h 0.23 c -0.06 -0.07 -0.09 -0.17 -0.17 -0.23 c 0.32 0 0.52 -0.12 0.82 0.06 c -0.12 0.27 -0.11 0.67 -0.29 0.88 l 0 0 l 0.52 -0.69 c 0.2 -0.27 0.38 -0.54 0.57 -0.81 h 0 l 0 0 l 0.06 -0.08 s 0 0 0 0 s 0 -0.06 0.06 0 l 0.45 -0.63 c -1.66 -1.81 -1.41 -5.42 0.31 -8.78 A 12.43 12.43 0 0 1 130.82 86 h -0.09 c 0.11 -0.11 0 -0.1 0 -0.29 c 0.29 0 0.62 0 0.64 -0.3 h 0 A 2 2 0 0 1 131.07 85.12 Z M 20.78 86.24 c -0.33 -1 1.16 -0.83 1.56 -0.22 C 21.82 86.93 21.3 85.59 20.78 86.24 Z m 3.33 12.22 c -0.22 -0.46 0.22 -0.24 0.45 0 C 24.78 98.92 24.34 98.71 24.11 98.46 Z m -0.22 -7.77 c 0.05 -0.42 0.6 -0.21 0.67 -0.23 C 25.91 90.11 23.86 91 23.89 90.69 Z m 5.56 7.77 c -0.52 -0.71 0.69 -0.71 0.89 0 C 30 98.65 29.74 98.17 29.45 98.46 Z m 2 5.11 c -0.21 -0.29 0.09 -0.34 0.22 -0.22 C 31.88 103.65 31.57 103.7 31.45 103.57 Z m -0.23 -2.89 c -0.55 -0.36 -0.43 -0.74 -0.66 -1.11 c 0.44 -0.33 0.89 -0.12 1.33 0.45 Z m 2.22 2.67 c -0.37 -0.44 0.62 -0.89 0.45 -1.33 c -0.29 -0.23 -0.59 0.21 -0.89 0.44 c 0.29 -1.08 0 -1.3 -1.11 -2 C 33.46 100.15 35.65 102.86 33.44 103.35 Z m 2.23 4.89 c -0.62 -0.37 0.11 -0.74 -0.22 -1.11 C 36.09 106.66 36.32 108 35.67 108.24 Z m 1.52 5.06 a 0.9 0.9 0 0 1 -0.65 -0.65 c 0.13 -0.05 0.2 -0.16 0.41 -0.12 C 36.88 112.91 37.34 113 37.19 113.3 Z m -1.3 -7.06 c 0.52 -0.66 1 -0.11 1.55 0.22 C 36.93 107.11 36.41 106.88 35.89 106.24 Z m 2.71 1.82 c 0 -0.14 -0.11 -0.12 -0.07 -0.29 a 0.45 0.45 0 0 1 0.48 0.12 C 38.9 108 38.83 108.1 38.6 108.06 Z m 20 11.35 c -0.42 0 -0.48 0.29 -0.53 0.64 c -0.15 0 -0.21 0 -0.17 0.18 c -0.2 -0.28 0.19 -0.58 -0.06 -0.77 c 0.4 0.1 0.57 -0.55 0.47 -0.94 c 0.1 0.11 0.26 0.17 0.35 0 A 1.42 1.42 0 0 1 58.63 119.41 Z M 70.27 123 a 0.31 0.31 0 0 1 0 -0.53 c 0.06 0.09 0.17 0.14 0.17 0.29 C 70.23 122.56 70.21 122.79 70.27 123 Z m 4.81 -1 c -0.19 -0.06 -0.2 0 -0.41 -0.06 a 1 1 0 0 0 0 -0.47 c 0 -0.11 0.34 0 0.12 -0.12 c 0.27 -0.14 0.17 0.37 0.41 0.36 C 75.25 121.88 75 121.81 75.08 122 Z m 0.83 0.35 c 0.12 0 0.16 -0.14 0.35 -0.12 C 76.71 122.57 76 122.86 75.91 122.34 Z m 18.8 -5.64 c 0 -0.11 0.2 0 0.23 -0.11 a 0.44 0.44 0 0 1 0.06 -0.3 c 0 -0.14 -0.26 -0.13 -0.23 -0.35 c 0.21 0 0.14 -0.21 0.23 -0.29 c 0.28 0.18 0.35 -0.14 0.71 0.06 c 0 -0.13 -0.16 -0.12 -0.24 -0.18 s 0.51 0 0.65 0.06 a 9.09 9.09 0 0 0 -0.29 1.52 c 0 -0.09 -0.19 -0.08 -0.18 -0.23 c -0.22 0 -0.22 0.29 -0.53 0.23 c 0 -0.11 0.27 0 0.18 -0.23 a 0.61 0.61 0 0 0 -0.3 0.35 c -0.1 0 -0.29 -0.16 -0.35 0 C 94.54 117.12 94.82 116.88 94.71 116.7 Z m 0.64 1.18 c 0.18 0 0.43 0.19 0.48 0.12 c 0.13 0.11 0 0.42 -0.12 0.52 c -0.12 -0.07 -0.33 -0.06 -0.41 -0.17 C 95.39 118.14 95.28 118.06 95.35 117.88 Z m -9 2.87 c -0.14 0 -0.13 -0.17 -0.24 -0.23 a 0.18 0.18 0 0 1 0.18 -0.12 c -0.12 -0.08 0 -0.35 -0.24 -0.35 c 0.13 -0.09 0.54 -0.24 0.47 0.12 c -0.38 0 0 0.37 0.06 0.41 S 86.28 120.59 86.31 120.75 Z m 0.53 -2 c -0.11 0.19 -0.3 0.19 -0.36 0.41 c -0.15 0 0.17 -0.29 -0.12 -0.23 c 0 -0.12 0.27 0 0.24 -0.18 c -0.27 0 0 -0.2 -0.35 -0.18 c 0 -0.19 0.19 -0.08 0.17 -0.23 a 1.25 1.25 0 0 0 0.53 0.06 C 86.72 118.31 86.79 118.78 86.84 118.7 Z m 2.94 2.47 c -0.25 0.07 -0.23 -0.12 -0.42 -0.12 c 0 -0.31 0.32 -0.34 0.47 -0.12 A 0.36 0.36 0 0 0 89.78 121.17 Z m 1.34 -0.18 c -0.25 0 -0.49 -0.12 -0.29 -0.41 c 0.22 -0.06 0.17 0.15 0.35 0.12 C 91.21 120.84 91.08 120.83 91.12 121 Z m 0.59 -3.41 c 0 -0.1 0.1 -0.15 0 -0.17 c 0.07 0 0.58 0 0.53 0.29 C 92 117.76 92 117.55 91.71 117.58 Z m 1.35 6.23 c -0.29 0 -0.08 -0.2 -0.17 -0.41 C 93 123.53 93.22 123.64 93.06 123.81 Z m -0.7 -3.17 a 0.64 0.64 0 0 1 -0.06 -0.59 c 0.25 0.18 0.25 0 0.53 -0.06 a 0.21 0.21 0 0 0 0.29 0.18 C 92.73 120.2 92.91 120.57 92.36 120.64 Z m 0.88 -4.41 c 0 -0.18 0.54 -0.23 0.24 -0.29 c 0.08 -0.12 0.55 -0.17 0.64 0.06 C 93.78 115.84 93.65 116.27 93.24 116.23 Z m 1.23 5.94 c 0 -0.19 -0.19 -0.2 -0.23 -0.36 s 0.26 0.07 0.41 0 c 0 0.11 0 0.18 0.12 0.17 C 94.78 122.11 94.61 122.13 94.47 122.17 Z m 1.29 -1.71 c -0.09 -0.28 -0.15 -0.07 -0.34 0 c -0.06 -0.16 0.08 -0.15 0 -0.29 s -0.12 0.11 -0.29 0.06 s -0.09 -0.29 -0.12 -0.12 c -0.12 0 0 -0.3 -0.24 -0.23 c 0.22 -0.17 0.51 0 0.71 -0.07 a 0.22 0.22 0 0 1 0 0.3 c 0.16 0 0.11 -0.12 0.18 -0.18 a 3 3 0 0 1 0.17 0.41 C 95.78 120.32 95.77 120.39 95.76 120.46 Z m 0.42 -0.47 a 0.47 0.47 0 0 0 -0.35 -0.18 c 0 -0.33 0.33 0.22 0.35 -0.11 C 96.31 119.71 96.21 120 96.18 120 Z m 5.11 -5.4 s -0.07 0 -0.12 0 c 0 0.22 0.13 0.23 0.12 0.42 C 101.05 115.15 101 114.48 101.29 114.59 Z m -3.24 3.82 a 2 2 0 0 0 -0.17 0.29 c -0.06 -0.1 -0.16 -0.15 -0.35 -0.12 a 1.65 1.65 0 0 0 -0.35 -0.47 c 0 -0.07 0 0 0 0 c 0.11 -0.29 0.34 -0.42 0.24 -0.94 c 0.11 0.21 0.27 0 0.35 0.06 s 0 0.07 -0.12 0.06 c 0.29 0.27 0.27 0.75 0.35 0.94 S 97.81 118.41 98.05 118.41 Z m 1.36 -2.47 c -0.11 0 -0.15 -0.13 -0.29 -0.12 c 0 -0.21 -0.07 -0.28 -0.12 -0.41 s -0.29 0 -0.29 0.12 s 0 -0.27 -0.18 -0.18 c 0.22 -0.27 -0.24 -0.57 0.06 -0.76 c -0.26 -0.06 -0.19 0.2 -0.42 0.17 c 0.17 -0.17 -0.23 -0.11 -0.17 -0.35 c 0.1 0.07 0.41 0 0.59 -0.06 c 0.18 0.12 0 0.24 0.29 0.24 c -0.16 0.1 0.22 0.32 0 0.47 c 0.15 0.07 0.42 0.27 0.65 0.23 c 0 0.22 0.33 0.22 0.29 0.53 C 99.66 115.75 99.43 115.72 99.41 115.94 Z m 0.12 -2.12 c 0.09 -0.32 0.51 -0.27 0.7 -0.35 c 0 -0.21 0 -0.4 -0.17 -0.47 c 0.1 -0.19 0.12 0.18 0.35 0.06 s 0 -0.07 0 -0.18 c 0.17 0.08 0.23 0 0.29 -0.17 c 0.21 0.09 0.13 0.3 0.35 0.11 c -0.07 0.13 0.11 0.6 -0.23 0.59 c 0.24 0.07 0 0.28 0.06 0.29 c -0.2 0 -0.33 0.17 -0.53 0 C 100.24 114 99.75 113.82 99.53 113.82 Z m 0.94 1.47 c 0 -0.08 0.22 -0.14 0.06 -0.18 c 0 -0.07 0.14 0 0.23 0 c -0.17 0.16 0.12 0.18 0.06 0.41 C 100.65 115.47 100.62 115.31 100.47 115.29 Z m 1.53 0.36 c -0.21 -0.06 0 -0.23 -0.18 -0.3 c -0.16 0.27 -0.55 0 -0.77 0.3 c -0.12 0 0 -0.27 -0.17 -0.24 c 0 -0.07 0.06 0 0.06 0 c 0.34 0 0 -0.18 0.11 -0.3 s 0.51 0.08 0.59 0 c 0.2 0 0.21 0.3 0.41 0.35 A 0.33 0.33 0 0 0 102 115.65 Z m 1.11 -0.89 c -0.11 0 -0.07 -0.16 -0.23 -0.12 v -0.23 c -0.1 0 -0.11 0.06 -0.18 0.06 c 0 0.38 -0.19 -0.15 -0.41 -0.41 a 1.28 1.28 0 0 0 -0.53 -0.36 c 0 -0.22 0.35 0 0.18 -0.11 c 0 -0.15 0.22 0 0.17 0.11 c 0.11 0 0 -0.19 0.12 -0.23 s 0.44 0.46 0.59 0.41 s -0.06 0.33 0.18 0.24 c 0 0.08 -0.15 0 -0.24 0.06 c 0.07 0.12 0.16 0.23 0.24 0.35 c 0.08 0 0 -0.08 0 -0.18 A 0.31 0.31 0 0 1 103.11 114.76 Z m 0.71 -1.94 c 0.07 -0.31 0.55 0.13 0.64 -0.11 c 0.17 0.13 -0.12 0.3 -0.12 0.47 c -0.09 0 -0.22 0 -0.23 0.06 C 103.85 113.26 104.05 112.83 103.82 112.82 Z m 0.46 1.12 c -0.19 0 -0.17 0.11 -0.29 0 c 0.25 -0.12 0.42 0 0.71 0 c -0.16 0.16 0.07 0.13 0.06 0.3 C 104.53 114.41 104.29 114.18 104.28 113.94 Z m 0.3 -0.88 c -0.08 -0.26 0.14 -0.21 0.18 -0.35 c 0 0.13 0.25 0.05 0.23 0.23 C 104.73 112.85 104.81 113.11 104.58 113.06 Z m 0.65 0.18 c 0.23 0 0.75 0.16 0.64 0.46 C 105.57 113.68 105.24 113.68 105.23 113.24 Z m 1.76 -3.82 c 0 0.21 0.12 0.42 0.12 0.52 a 2.67 2.67 0 0 1 -0.59 0.06 a 1 1 0 0 1 -0.18 -0.58 C 106.56 109.3 106.77 109.41 107 109.42 Z m 0.06 4.4 c -0.11 -0.34 -0.66 -0.13 -0.53 -0.52 c 0.13 0.19 0.69 0 0.65 0.47 C 107.1 113.76 107.06 113.78 107.05 113.82 Z m 0.18 -1.58 c 0.23 -0.06 0.2 -0.39 0.46 -0.42 c 0 0.11 0.06 0.13 0.06 0.07 a 1.34 1.34 0 0 1 0.24 0.46 c -0.22 -0.06 -0.19 0.13 -0.3 0.18 a 0.32 0.32 0 0 0 0.18 0.18 c 0 0.06 -0.06 0 -0.06 0 s -0.3 -0.07 -0.29 0.06 C 107.25 112.61 107.43 112.42 107.23 112.24 Z m 0.93 2.17 c 0 -0.34 -0.33 -0.45 -0.64 -0.53 c 0 -0.14 0.1 -0.12 0.06 -0.29 c 0.06 0 0.3 0.2 0.06 0.18 c 0 0 0 0 0 0.11 a 3.62 3.62 0 0 1 0.71 -0.06 q 0 0.2 0.18 0.18 C 108.51 114.21 108.18 114.15 108.16 114.41 Z m 1.36 -6.64 c 0.13 -0.07 0.33 -0.1 0.46 -0.17 c 0 0.12 0 0.18 -0.17 0.17 c 0 0.14 0.16 0.14 0.17 0 C 110.15 108.15 109.59 108 109.52 107.77 Z m 3.23 3.18 c 0 0.06 0.1 0 0.18 0 s -0.12 0 -0.18 0.06 c 0.12 0.11 0 0.19 0.12 0.23 c -0.08 0.09 -0.13 0 -0.3 0 c 0 0.17 0.18 0.22 0.3 0.3 s -0.16 -0.08 -0.18 0.12 c -0.28 -0.31 -0.08 -1.13 -0.17 -1.53 c 0 0.13 0.21 0.13 0.41 0.12 c -0.06 0.26 0 0.28 0.17 0.53 C 112.89 110.9 112.91 110.91 112.75 111 Z m 0.7 -5.18 c 0.06 0.24 -0.17 0.18 -0.11 0.41 c -0.07 -0.16 -0.26 -0.21 -0.24 -0.47 C 113.24 105.71 113.27 105.81 113.45 105.77 Z m 0.06 1.59 c -0.26 0 0 -0.23 -0.17 -0.35 c 0.12 -0.14 0.51 -0.05 0.47 0.17 S 113.55 107.12 113.51 107.36 Z m 0.81 -1.34 c -0.21 -0.3 0.1 -0.35 0.23 -0.22 C 114.75 106.09 114.45 106.14 114.32 106 Z m 0.84 -2.89 c 0 -0.07 0 -0.11 -0.06 -0.12 c -0.06 -0.19 0.32 -0.25 0.17 -0.35 c 0 -0.17 0.19 0 0.3 0 C 115.61 103 115.51 103.19 115.16 103.13 Z m 0.41 0.82 c 0.05 -0.29 0.15 -0.22 0.23 -0.53 c 0.07 0.12 0.21 0 0.06 -0.06 c 0.08 -0.22 0.44 0.1 0.47 -0.23 c 0.12 0 0.16 0 0.24 0.06 C 116.18 103.39 116 103.83 115.57 104 Z m 1.05 -1.41 h -0.23 a 0.46 0.46 0 0 1 0.12 0.41 c -0.1 0 -0.1 0 -0.18 -0.06 v 0.18 a 0.65 0.65 0 0 1 0.24 -0.82 C 116.69 102.24 116.59 102.45 116.62 102.54 Z m 9.17 -12.69 c 0.08 0 0 0.23 0.12 0.24 c -0.1 0.15 -0.13 0.06 -0.3 0.17 a 1.24 1.24 0 0 1 0 -0.41 C 125.67 90 125.63 89.84 125.79 89.85 Z m -1 1.17 c 0.07 0 0.11 0 0.12 -0.06 c 0.1 0.16 0 0.24 0.12 0.42 c -0.08 0.06 -0.22 0.05 -0.24 0.17 s -0.05 0 -0.06 0 s 0 -0.06 0 -0.06 S 124.81 91.22 124.79 91 Z m -0.94 -0.52 c 0.43 -0.06 0.11 0.5 0.41 0.64 a 0.35 0.35 0 0 1 -0.06 0.3 c -0.12 0 -0.15 0 -0.23 -0.06 c 0.15 -0.28 -0.12 -0.44 0.06 -0.53 c 0 -0.18 -0.15 0.07 -0.3 0 C 123.8 90.74 124 90.74 123.85 90.5 Z m 0.47 1.46 c -0.07 -0.06 -0.12 0 -0.12 0.06 s 0 0 -0.06 -0.06 H 124 c 0.14 -0.07 0.09 -0.33 0.17 -0.46 C 124.32 91.58 124.24 91.86 124.32 92 Z m -0.22 0.28 a 2 2 0 0 0 0.38 1.2 c 0.09 0 0.11 0.1 0.25 0 c -0.1 0.17 0.18 0.35 0.41 0.35 c 0 0.1 0 0.23 0.06 0.24 a 0.39 0.39 0 0 1 -0.39 0 a 2.3 2.3 0 0 1 0.18 0.43 C 123.84 95.32 123.31 92.81 124.1 92.24 Z m -0.72 0.67 c 0.17 -0.1 -0.11 0.13 -0.06 0.29 c -0.14 0 -0.34 -0.06 -0.35 -0.24 S 123.29 93.1 123.38 92.91 Z m -6.46 7.58 c 0.19 0 0.26 0.21 0.29 0.4 c 0 0 0 0 -0.06 0 s 0 0.06 0 0 c -0.09 0.17 -0.26 -0.08 -0.47 0 C 116.82 100.7 117.05 100.86 116.92 100.49 Z m 0.41 2.23 c -0.12 0 -0.29 0 -0.29 0.29 c -0.08 -0.06 -0.22 -0.06 -0.3 -0.12 c 0.06 -0.25 0.46 -0.17 0.53 -0.41 C 117.48 102.5 117.17 102.74 117.33 102.72 Z m 3.11 -1.83 s 0 0.08 0 0.12 a 2.63 2.63 0 0 1 -0.42 -0.17 c 0 0.18 0.11 0.17 0.06 0.35 c -0.32 0 -0.42 0.13 -0.41 0.41 c -0.13 -0.11 -0.32 0.07 -0.41 0.18 c -0.62 -0.38 -1 0.59 -1.53 0.47 c 0.08 -0.08 0.28 -0.24 0.06 -0.3 c 0.13 -0.19 0.34 -0.28 0.29 -0.64 c 0.08 0.07 0.18 0 0.24 -0.06 c 0.11 0.18 0.32 0 0.29 0.24 c 0.46 -0.6 1.29 -0.71 1.47 -1.36 c 0.28 0.06 0.35 0.32 0.47 0.53 C 120.32 100.8 120.36 100.68 120.44 100.89 Z m -1.11 -2.16 c 0.2 0 0.17 -0.31 0.29 -0.42 c 0.3 0.13 0.32 0.21 0.53 0.47 c -0.14 0.11 -0.26 0 -0.41 0.12 c 0 -0.26 -0.15 0 -0.3 -0.06 C 119.47 98.74 119.4 98.73 119.33 98.73 Z m 1.11 -0.77 a 2.63 2.63 0 0 0 -1.17 -0.41 c 0.08 -0.26 0 -0.62 -0.17 -0.47 c 0 -0.3 0.52 -0.06 0.46 -0.42 c 0.3 0.19 0.34 0 0.71 0 c 0.08 0.12 0.14 0.26 0.3 0.3 c -0.15 0.39 0.32 0.3 -0.07 0.65 a 0.27 0.27 0 0 0 0.24 0.11 C 120.64 97.81 120.51 97.85 120.44 98 Z m -0.23 -2.47 c 0.2 -0.2 0.4 -0.06 0.59 0.06 c 0 0.16 0 0.4 -0.23 0.35 c 0 0.07 0.1 0 0.17 0.06 C 120.49 96.3 120.31 95.69 120.21 95.49 Z m 1.29 5.58 c -0.29 0 -0.35 0 -0.53 -0.23 c -0.08 0.14 -0.12 0 -0.17 0.11 c 0 -0.14 0.33 -0.36 0.58 -0.41 C 121.45 100.68 121.59 101 121.5 101.07 Z m 1.59 -1.88 c -0.22 0 -0.35 0.16 -0.65 0.12 c 0 -0.14 -0.1 -0.13 0 -0.29 a 0.55 0.55 0 0 0 0.34 0.17 c 0.13 0 0 -0.25 0.12 -0.29 h 0.3 C 123.17 99 123 99 123.09 99.19 Z m 0.94 -2.76 c -0.52 0 -0.81 0.33 -0.77 0.73 a 0.2 0.2 0 0 1 0.07 0.23 a 1 1 0 0 0 0 0.16 c -0.28 0.13 -0.27 0.26 -0.7 0.17 c 0.06 -0.22 -0.15 -0.17 -0.12 -0.35 c 0.17 0.14 0.25 -0.08 0.12 -0.17 s 0.14 0 0.17 0 v -0.17 c 0 -0.08 -0.14 0 -0.23 -0.06 c -0.07 -0.19 0.56 0.13 0.59 -0.12 a 3.22 3.22 0 0 0 -0.48 -0.29 a 1.16 1.16 0 0 0 0.18 -0.35 a 1.87 1.87 0 0 1 0.82 0 c 0 -0.1 -0.07 -0.12 -0.06 -0.23 c 0.14 0.13 0.24 0 0.42 0 C 124 96.22 124 96.2 124 96.43 Z m 1.18 -0.41 c -0.14 0.9 -0.19 -0.11 -0.13 -0.32 a 2.58 2.58 0 0 0 -0.29 0 c 0.29 0.36 -0.23 0.07 -0.35 0.29 c 0 -0.24 -0.29 -0.54 -0.53 -0.76 c 0.23 -0.07 0 -0.31 0.12 -0.47 c 0.31 0 0.33 0.26 0.82 0.23 c 0.18 0.24 0.33 0.57 0.53 0.47 c 0 0.21 -0.1 0.26 -0.24 0.27 A 1.09 1.09 0 0 1 125.21 96 Z m 0.81 3.52 c -0.09 0.24 -0.36 -0.07 -0.58 0.07 v -0.3 a 0.32 0.32 0 0 1 0.17 -0.06 c 0.22 0.08 -0.17 0 -0.11 0.12 s 0.37 0 0.52 0.06 s -0.07 0 -0.11 0 S 126 99.54 126 99.54 Z m 0.42 -0.94 a 1 1 0 0 1 -0.88 0 s 0.07 0 0.11 -0.06 a 0.15 0.15 0 0 0 -0.11 -0.11 c -0.23 0.09 0 0.32 -0.24 0.35 c 0 -0.39 0.11 -0.49 0.29 -0.71 c 0 0 0 -0.21 0.06 -0.23 s 0.44 -0.07 0.45 -0.15 C 126.35 97.84 126.35 98.35 126.44 98.6 Z m -0.36 -10.51 a 3 3 0 0 0 -0.06 -0.59 c 0.25 0.3 0.09 -0.27 0.47 -0.23 a 0.26 0.26 0 0 0 0 0.17 c 0.21 0.06 0.09 -0.22 0.29 -0.17 c 0 0.13 0.11 0.12 0.06 0.29 s -0.25 0 -0.41 -0.06 a 0.78 0.78 0 0 0 -0.12 0.59 C 126.16 88.1 126.11 88 126.08 88.09 Z m 0.71 2.64 c -0.26 0 -0.29 0.08 -0.47 0 a 0.32 0.32 0 0 0 0.06 -0.23 a 0.37 0.37 0 0 1 0.29 -0.06 c 0 -0.11 -0.2 0 -0.23 -0.12 c 0.12 -0.13 0.27 -0.13 0.47 -0.06 C 126.89 90.44 126.73 90.48 126.79 90.73 Z m 1.12 -3.82 c -0.22 -0.17 0.06 -0.25 -0.12 -0.53 c 0.06 0 0 0.08 0.06 0.12 a 0.15 0.15 0 0 0 0.17 -0.12 C 128.22 86.57 128 86.77 127.91 86.91 Z" stroke-linecap="round" />
</g>
		<g transform="matrix(1 0 0 1 27.83999999999999 52.12322082956706)"  >
<path style="stroke: none; stroke-width: 1; stroke-dasharray: none; stroke-linecap: butt; stroke-dashoffset: 0; stroke-linejoin: miter; stroke-miterlimit: 4; fill: rgb(0,0,0); fill-rule: nonzero; opacity: 1;"  transform=" translate(-102.77499999999999, -115.39822082956707)" d="M 102.71 115.46 l 0.13 -0.06 s 0 0 0 -0.05 S 102.73 115.4 102.71 115.46 Z" stroke-linecap="round" />
</g>
		<g transform="matrix(1 0 0 1 33.864999999999995 51.385)"  >
<path style="stroke: none; stroke-width: 1; stroke-dasharray: none; stroke-linecap: butt; stroke-dashoffset: 0; stroke-linejoin: miter; stroke-miterlimit: 4; fill: rgb(0,0,0); fill-rule: nonzero; opacity: 1;"  transform=" translate(-108.8, -114.66)" d="M 108.77 114.69 h 0.06 s 0 0 0 -0.06 Z" stroke-linecap="round" />
</g>
		<g transform="matrix(1 0 0 1 49.69559009918485 38.59365000000002)"  >
<path style="stroke: none; stroke-width: 1; stroke-dasharray: none; stroke-linecap: butt; stroke-dashoffset: 0; stroke-linejoin: miter; stroke-miterlimit: 4; fill: rgb(0,0,0); fill-rule: nonzero; opacity: 1;"  transform=" translate(-124.63059009918484, -101.86865000000002)" d="M 124.42 101.87 l 0.29 0.09 a 0.16 0.16 0 0 1 0.14 -0.07 c 0 -0.14 -0.2 -0.11 -0.35 -0.11 S 124.44 101.84 124.42 101.87 Z" stroke-linecap="round" />
</g>
		<g transform="matrix(1 0 0 1 50.487740368974485 38.0630063112727)"  >
<path style="stroke: none; stroke-width: 1; stroke-dasharray: none; stroke-linecap: butt; stroke-dashoffset: 0; stroke-linejoin: miter; stroke-miterlimit: 4; fill: rgb(0,0,0); fill-rule: nonzero; opacity: 1;"  transform=" translate(-125.42274036897449, -101.3380063112727)" d="M 125.4 101.41 a 1.13 1.13 0 0 0 0.1 -0.13 v 0 C 125.34 101.22 125.3 101.37 125.4 101.41 Z" stroke-linecap="round" />
</g>
		<g transform="matrix(1 0 0 1 30.279999999999994 51.410555555555554)"  >
<path style="stroke: none; stroke-width: 1; stroke-dasharray: none; stroke-linecap: butt; stroke-dashoffset: 0; stroke-linejoin: miter; stroke-miterlimit: 4; fill: rgb(0,0,0); fill-rule: nonzero; opacity: 1;"  transform=" translate(-105.215, -114.68555555555555)" d="M 105.16 114.69 l 0.11 0 s 0 0 0 0 S 105.16 114.67 105.16 114.69 Z" stroke-linecap="round" />
</g>
		<g transform="matrix(1 0 0 1 20.626452623914403 58.91689606652575)"  >
<path style="stroke: none; stroke-width: 1; stroke-dasharray: none; stroke-linecap: butt; stroke-dashoffset: 0; stroke-linejoin: miter; stroke-miterlimit: 4; fill: rgb(0,0,0); fill-rule: nonzero; opacity: 1;"  transform=" translate(-95.5614526239144, -122.19189606652574)" d="M 95.71 122.17 a 0.34 0.34 0 0 0 -0.29 -0.06 C 95.36 122.32 95.7 122.34 95.71 122.17 Z" stroke-linecap="round" />
</g>
		<g transform="matrix(1 0 0 1 -7.7250000000000085 54.96764267879622)"  >
<path style="stroke: none; stroke-width: 1; stroke-dasharray: none; stroke-linecap: butt; stroke-dashoffset: 0; stroke-linejoin: miter; stroke-miterlimit: 4; fill: rgb(0,0,0); fill-rule: nonzero; opacity: 1;"  transform=" translate(-67.21, -118.24264267879622)" d="M 67.27 118.18 l -0.12 0 C 67.19 118.27 67.23 118.41 67.27 118.18 Z" stroke-linecap="round" />
</g>
		<g transform="matrix(1 0 0 1 -52.23375 25.41250000420562)"  >
<path style="stroke: none; stroke-width: 1; stroke-dasharray: none; stroke-linecap: butt; stroke-dashoffset: 0; stroke-linejoin: miter; stroke-miterlimit: 4; fill: rgb(0,0,0); fill-rule: nonzero; opacity: 1;"  transform=" translate(-22.70125, -88.68750000420562)" d="M 22.78 88.69 c -0.21 1.28 -0.21 -1.29 0 0 Z" stroke-linecap="round" />
</g>
		<g transform="matrix(1 0 0 1 -50.799231700309306 25.190000000000012)"  >
<path style="stroke: none; stroke-width: 1; stroke-dasharray: none; stroke-linecap: butt; stroke-dashoffset: 0; stroke-linejoin: miter; stroke-miterlimit: 4; fill: rgb(0,0,0); fill-rule: nonzero; opacity: 1;"  transform=" translate(-24.135768299690692, -88.465)" d="M 24.11 88.24 c 0.24 0 0.13 0.45 0 0.45 S 24 88.24 24.11 88.24 Z" stroke-linecap="round" />
</g>
		<g transform="matrix(1 0 0 1 -49.28717326870095 28.505000000000003)"  >
<path style="stroke: none; stroke-width: 1; stroke-dasharray: none; stroke-linecap: butt; stroke-dashoffset: 0; stroke-linejoin: miter; stroke-miterlimit: 4; fill: rgb(0,0,0); fill-rule: nonzero; opacity: 1;"  transform=" translate(-25.647826731299055, -91.78)" d="M 25.67 92 c -0.23 0 -0.12 -0.44 0 -0.44 S 25.79 92 25.67 92 Z" stroke-linecap="round" />
</g>
		<g transform="matrix(1 0 0 1 -37.913137971051164 42.074999999999996)"  >
<path style="stroke: none; stroke-width: 1; stroke-dasharray: none; stroke-linecap: butt; stroke-dashoffset: 0; stroke-linejoin: miter; stroke-miterlimit: 4; fill: rgb(0,0,0); fill-rule: nonzero; opacity: 1;"  transform=" translate(-37.02186202894884, -105.35)" d="M 37 105.13 c 0.23 0 0.13 0.44 0 0.44 S 36.88 105.13 37 105.13 Z" stroke-linecap="round" />
</g>
		<g transform="matrix(1 0 0 1 -36.2814286162846 46.76)"  >
<path style="stroke: none; stroke-width: 1; stroke-dasharray: none; stroke-linecap: butt; stroke-dashoffset: 0; stroke-linejoin: miter; stroke-miterlimit: 4; fill: rgb(0,0,0); fill-rule: nonzero; opacity: 1;"  transform=" translate(-38.6535713837154, -110.035)" d="M 38.77 110.24 c -0.11 0 -0.12 -0.07 -0.24 -0.06 a 0.74 0.74 0 0 1 0.18 -0.35 C 38.88 110 38.66 110.1 38.77 110.24 Z" stroke-linecap="round" />
</g>
		<g transform="matrix(1 0 0 1 -20.173159722222223 53.48716011728784)"  >
<path style="stroke: none; stroke-width: 1; stroke-dasharray: none; stroke-linecap: butt; stroke-dashoffset: 0; stroke-linejoin: miter; stroke-miterlimit: 4; fill: rgb(0,0,0); fill-rule: nonzero; opacity: 1;"  transform=" translate(-54.76184027777778, -116.76216011728783)" d="M 54.64 116.88 a 0.35 0.35 0 0 0 0 -0.24 c 0.11 0.09 0.27 -0.06 0.24 0.24 C 54.82 116.77 54.83 116.91 54.64 116.88 Z" stroke-linecap="round" />
</g>
		<g transform="matrix(1 0 0 1 -16.800972092511522 55.184999999999995)"  >
<path style="stroke: none; stroke-width: 1; stroke-dasharray: none; stroke-linecap: butt; stroke-dashoffset: 0; stroke-linejoin: miter; stroke-miterlimit: 4; fill: rgb(0,0,0); fill-rule: nonzero; opacity: 1;"  transform=" translate(-58.13402790748848, -118.46)" d="M 58.11 118.24 c 0.23 0 0.12 0.44 0 0.44 S 58 118.24 58.11 118.24 Z" stroke-linecap="round" />
</g>
		<g transform="matrix(1 0 0 1 -12.688075922955832 55.1818843384226)"  >
<path style="stroke: none; stroke-width: 1; stroke-dasharray: none; stroke-linecap: butt; stroke-dashoffset: 0; stroke-linejoin: miter; stroke-miterlimit: 4; fill: rgb(0,0,0); fill-rule: nonzero; opacity: 1;"  transform=" translate(-62.24692407704417, -118.4568843384226)" d="M 62.1 118.58 c 0 -0.12 0 -0.15 0.06 -0.23 s 0.12 0.07 0.23 0.06 C 62.42 118.59 62.27 118.6 62.1 118.58 Z" stroke-linecap="round" />
</g>
		<g transform="matrix(1 0 0 1 -6.3655555555555665 55.39499999999998)"  >
<path style="stroke: none; stroke-width: 1; stroke-dasharray: none; stroke-linecap: butt; stroke-dashoffset: 0; stroke-linejoin: miter; stroke-miterlimit: 4; fill: rgb(0,0,0); fill-rule: nonzero; opacity: 1;"  transform=" translate(-68.56944444444443, -118.66999999999999)" d="M 68.56 118.82 c -0.08 0 -0.08 -0.19 -0.12 -0.3 c 0.12 0 0.16 0.12 0.24 0.18 S 68.56 118.74 68.56 118.82 Z" stroke-linecap="round" />
</g>
		<g transform="matrix(1 0 0 1 20.03499999999999 55.195013040647304)"  >
<path style="stroke: none; stroke-width: 1; stroke-dasharray: none; stroke-linecap: butt; stroke-dashoffset: 0; stroke-linejoin: miter; stroke-miterlimit: 4; fill: rgb(0,0,0); fill-rule: nonzero; opacity: 1;"  transform=" translate(-94.97, -118.4700130406473)" d="M 94.89 118.29 c 0.24 -0.07 0.1 0.25 0.23 0.29 c -0.05 0.18 -0.19 0 -0.3 0 C 95 118.48 94.89 118.51 94.89 118.29 Z" stroke-linecap="round" />
</g>
		<g transform="matrix(1 0 0 1 12.025315574167905 57.09792073794551)"  >
<path style="stroke: none; stroke-width: 1; stroke-dasharray: none; stroke-linecap: butt; stroke-dashoffset: 0; stroke-linejoin: miter; stroke-miterlimit: 4; fill: rgb(0,0,0); fill-rule: nonzero; opacity: 1;"  transform=" translate(-86.96031557416791, -120.3729207379455)" d="M 87.13 120.52 c -0.18 0 -0.23 -0.12 -0.35 -0.18 s 0.27 -0.09 0.23 0 s 0 -0.07 0.06 -0.11 S 87.21 120.45 87.13 120.52 Z" stroke-linecap="round" />
</g>
		<g transform="matrix(1 0 0 1 12.912828230761157 54.605)"  >
<path style="stroke: none; stroke-width: 1; stroke-dasharray: none; stroke-linecap: butt; stroke-dashoffset: 0; stroke-linejoin: miter; stroke-miterlimit: 4; fill: rgb(0,0,0); fill-rule: nonzero; opacity: 1;"  transform=" translate(-87.84782823076117, -117.88)" d="M 87.89 118 a 0.21 0.21 0 0 0 -0.18 -0.06 c 0 -0.11 0.05 -0.12 0.13 -0.12 s 0 -0.06 -0.07 -0.06 s 0.08 0 0.18 0 S 87.91 117.92 87.89 118 Z" stroke-linecap="round" />
</g>
		<g transform="matrix(1 0 0 1 13.687355555555563 54.87172552015115)"  >
<path style="stroke: none; stroke-width: 1; stroke-dasharray: none; stroke-linecap: butt; stroke-dashoffset: 0; stroke-linejoin: miter; stroke-miterlimit: 4; fill: rgb(0,0,0); fill-rule: nonzero; opacity: 1;"  transform=" translate(-88.62235555555557, -118.14672552015115)" d="M 88.54 118.06 h 0.18 c 0 0.08 0 0.16 0 0.17 S 88.46 118.24 88.54 118.06 Z" stroke-linecap="round" />
</g>
		<g transform="matrix(1 0 0 1 17.307563412420222 58.06999999999999)"  >
<path style="stroke: none; stroke-width: 1; stroke-dasharray: none; stroke-linecap: butt; stroke-dashoffset: 0; stroke-linejoin: miter; stroke-miterlimit: 4; fill: rgb(0,0,0); fill-rule: nonzero; opacity: 1;"  transform=" translate(-92.24256341242022, -121.345)" d="M 92.12 121.23 c 0.14 0 0.28 0 0.24 0.23 C 92.25 121.38 92.1 121.53 92.12 121.23 Z" stroke-linecap="round" />
</g>
		<g transform="matrix(1 0 0 1 17.569999999999993 59.759444444444426)"  >
<path style="stroke: none; stroke-width: 1; stroke-dasharray: none; stroke-linecap: butt; stroke-dashoffset: 0; stroke-linejoin: miter; stroke-miterlimit: 4; fill: rgb(0,0,0); fill-rule: nonzero; opacity: 1;"  transform=" translate(-92.505, -123.03444444444443)" d="M 92.3 123.11 a 0.32 0.32 0 0 0 0.06 -0.18 c 0.18 0 0.23 0.08 0.35 0.12 C 92.62 123.13 92.36 123.17 92.3 123.11 Z" stroke-linecap="round" />
</g>
		<g transform="matrix(1 0 0 1 19.295842652756455 53.36499999999998)"  >
<path style="stroke: none; stroke-width: 1; stroke-dasharray: none; stroke-linecap: butt; stroke-dashoffset: 0; stroke-linejoin: miter; stroke-miterlimit: 4; fill: rgb(0,0,0); fill-rule: nonzero; opacity: 1;"  transform=" translate(-94.23084265275645, -116.63999999999999)" d="M 94.06 116.52 c 0.15 0.06 0.34 0.06 0.35 0.24 C 94.28 116.71 94 116.74 94.06 116.52 Z" stroke-linecap="round" />
</g>
		<g transform="matrix(1 0 0 1 19.42 56.86213758412265)"  >
<path style="stroke: none; stroke-width: 1; stroke-dasharray: none; stroke-linecap: butt; stroke-dashoffset: 0; stroke-linejoin: miter; stroke-miterlimit: 4; fill: rgb(0,0,0); fill-rule: nonzero; opacity: 1;"  transform=" translate(-94.355, -120.13713758412266)" d="M 94.12 120.17 c 0.16 0 0.2 -0.15 0.23 -0.29 s 0.08 0.15 0.24 0.11 a 0.42 0.42 0 0 1 -0.29 0.3 c 0.14 0.11 0.14 0 0.17 0.11 S 94.13 120.32 94.12 120.17 Z" stroke-linecap="round" />
</g>
		<g transform="matrix(1 0 0 1 21.562146160796352 56.10808267538998)"  >
<path style="stroke: none; stroke-width: 1; stroke-dasharray: none; stroke-linecap: butt; stroke-dashoffset: 0; stroke-linejoin: miter; stroke-miterlimit: 4; fill: rgb(0,0,0); fill-rule: nonzero; opacity: 1;"  transform=" translate(-96.49714616079635, -119.38308267538997)" d="M 96.41 119.52 c -0.25 -0.09 0.28 -0.17 0.06 -0.23 c 0 -0.13 0.21 0.06 0.18 0.17 S 96.42 119.44 96.41 119.52 Z" stroke-linecap="round" />
</g>
		<g transform="matrix(1 0 0 1 21.76876688264786 56.9695953309029)"  >
<path style="stroke: none; stroke-width: 1; stroke-dasharray: none; stroke-linecap: butt; stroke-dashoffset: 0; stroke-linejoin: miter; stroke-miterlimit: 4; fill: rgb(0,0,0); fill-rule: nonzero; opacity: 1;"  transform=" translate(-96.70376688264787, -120.2445953309029)" d="M 96.77 120.4 h -0.18 c 0 -0.2 0.24 -0.07 0.18 -0.29 C 96.86 120 96.8 120.36 96.77 120.4 Z" stroke-linecap="round" />
</g>
		<g transform="matrix(1 0 0 1 23.7304398831959 50.785)"  >
<path style="stroke: none; stroke-width: 1; stroke-dasharray: none; stroke-linecap: butt; stroke-dashoffset: 0; stroke-linejoin: miter; stroke-miterlimit: 4; fill: rgb(0,0,0); fill-rule: nonzero; opacity: 1;"  transform=" translate(-98.6654398831959, -114.06)" d="M 98.59 113.94 s 0.16 0.09 0.17 0 c 0.16 0.08 -0.12 0.22 -0.23 0.24 C 98.5 114.05 98.57 114 98.59 113.94 Z" stroke-linecap="round" />
</g>
		<g transform="matrix(1 0 0 1 29.50564466441147 49.17027434842248)"  >
<path style="stroke: none; stroke-width: 1; stroke-dasharray: none; stroke-linecap: butt; stroke-dashoffset: 0; stroke-linejoin: miter; stroke-miterlimit: 4; fill: rgb(0,0,0); fill-rule: nonzero; opacity: 1;"  transform=" translate(-104.44064466441148, -112.44527434842249)" d="M 104.4 112.3 c 0.14 0 0.07 0.17 0.18 0.17 s -0.15 0.13 -0.3 0.12 C 104.24 112.41 104.45 112.47 104.4 112.3 Z" stroke-linecap="round" />
</g>
		<g transform="matrix(1 0 0 1 29.147431691553912 51.39999999999998)"  >
<path style="stroke: none; stroke-width: 1; stroke-dasharray: none; stroke-linecap: butt; stroke-dashoffset: 0; stroke-linejoin: miter; stroke-miterlimit: 4; fill: rgb(0,0,0); fill-rule: nonzero; opacity: 1;"  transform=" translate(-104.08243169155392, -114.67499999999998)" d="M 104.11 114.82 c -0.09 0 0 -0.18 -0.12 -0.18 s 0.12 0 0.12 -0.11 C 104.31 114.57 104.15 114.71 104.11 114.82 Z" stroke-linecap="round" />
</g>
		<g transform="matrix(1 0 0 1 31.34499999999999 50.284549193672)"  >
<path style="stroke: none; stroke-width: 1; stroke-dasharray: none; stroke-linecap: butt; stroke-dashoffset: 0; stroke-linejoin: miter; stroke-miterlimit: 4; fill: rgb(0,0,0); fill-rule: nonzero; opacity: 1;"  transform=" translate(-106.28, -113.559549193672)" d="M 106.46 113.65 a 0.49 0.49 0 0 0 -0.36 -0.06 a 0.51 0.51 0 0 1 0.36 -0.12 Z" stroke-linecap="round" />
</g>
		<g transform="matrix(1 0 0 1 33.61 45.45996870298492)"  >
<path style="stroke: none; stroke-width: 1; stroke-dasharray: none; stroke-linecap: butt; stroke-dashoffset: 0; stroke-linejoin: miter; stroke-miterlimit: 4; fill: rgb(0,0,0); fill-rule: nonzero; opacity: 1;"  transform=" translate(-108.545, -108.73496870298493)" d="M 108.75 108.77 c -0.08 0.15 -0.3 0 -0.41 -0.06 C 108.46 108.52 108.65 108.75 108.75 108.77 Z" stroke-linecap="round" />
</g>
		<g transform="matrix(1 0 0 1 33.329564463499445 50.315)"  >
<path style="stroke: none; stroke-width: 1; stroke-dasharray: none; stroke-linecap: butt; stroke-dashoffset: 0; stroke-linejoin: miter; stroke-miterlimit: 4; fill: rgb(0,0,0); fill-rule: nonzero; opacity: 1;"  transform=" translate(-108.26456446349945, -113.59)" d="M 108.34 113.41 c 0.11 0.08 -0.13 0.19 0 0.36 c -0.08 -0.06 -0.19 -0.09 -0.18 -0.24 S 108.33 113.5 108.34 113.41 Z" stroke-linecap="round" />
</g>
		<g transform="matrix(1 0 0 1 33.592826731299056 48.29500000000001)"  >
<path style="stroke: none; stroke-width: 1; stroke-dasharray: none; stroke-linecap: butt; stroke-dashoffset: 0; stroke-linejoin: miter; stroke-miterlimit: 4; fill: rgb(0,0,0); fill-rule: nonzero; opacity: 1;"  transform=" translate(-108.52782673129906, -111.57000000000001)" d="M 108.55 111.79 c -0.23 0 -0.12 -0.44 0 -0.44 S 108.67 111.79 108.55 111.79 Z" stroke-linecap="round" />
</g>
		<g transform="matrix(1 0 0 1 33.81282673129905 47.63000000000001)"  >
<path style="stroke: none; stroke-width: 1; stroke-dasharray: none; stroke-linecap: butt; stroke-dashoffset: 0; stroke-linejoin: miter; stroke-miterlimit: 4; fill: rgb(0,0,0); fill-rule: nonzero; opacity: 1;"  transform=" translate(-108.74782673129906, -110.905)" d="M 108.77 111.13 c -0.23 0 -0.12 -0.45 0 -0.45 S 108.89 111.13 108.77 111.13 Z" stroke-linecap="round" />
</g>
		<g transform="matrix(1 0 0 1 34.24141700306019 45.91)"  >
<path style="stroke: none; stroke-width: 1; stroke-dasharray: none; stroke-linecap: butt; stroke-dashoffset: 0; stroke-linejoin: miter; stroke-miterlimit: 4; fill: rgb(0,0,0); fill-rule: nonzero; opacity: 1;"  transform=" translate(-109.1764170030602, -109.185)" d="M 109 109.3 s 0 -0.06 0.07 -0.06 s -0.14 -0.06 -0.12 -0.17 c 0.22 0 0.28 0.15 0.41 0.05 C 109.55 109.28 109.07 109.23 109 109.3 Z" stroke-linecap="round" />
</g>
		<g transform="matrix(1 0 0 1 34.385662996229186 49.254999999999995)"  >
<path style="stroke: none; stroke-width: 1; stroke-dasharray: none; stroke-linecap: butt; stroke-dashoffset: 0; stroke-linejoin: miter; stroke-miterlimit: 4; fill: rgb(0,0,0); fill-rule: nonzero; opacity: 1;"  transform=" translate(-109.32066299622919, -112.53)" d="M 109.4 112.71 c -0.06 0 -0.06 -0.14 -0.18 -0.12 s 0.16 -0.08 0.12 -0.24 A 0.25 0.25 0 0 1 109.4 112.71 Z" stroke-linecap="round" />
</g>
		<g transform="matrix(1 0 0 1 34.40511161723537 45.68178156169736)"  >
<path style="stroke: none; stroke-width: 1; stroke-dasharray: none; stroke-linecap: butt; stroke-dashoffset: 0; stroke-linejoin: miter; stroke-miterlimit: 4; fill: rgb(0,0,0); fill-rule: nonzero; opacity: 1;"  transform=" translate(-109.34011161723538, -108.95678156169737)" d="M 109.22 109 a 0.26 0.26 0 0 0 0.06 -0.17 c -0.14 -0.12 0.19 0.1 0.18 0.24 S 109.3 109 109.22 109 Z" stroke-linecap="round" />
</g>
		<g transform="matrix(1 0 0 1 34.93133173328835 50.965042591687826)"  >
<path style="stroke: none; stroke-width: 1; stroke-dasharray: none; stroke-linecap: butt; stroke-dashoffset: 0; stroke-linejoin: miter; stroke-miterlimit: 4; fill: rgb(0,0,0); fill-rule: nonzero; opacity: 1;"  transform=" translate(-109.86633173328835, -114.24004259168782)" d="M 109.87 114.41 c -0.1 0 -0.13 -0.18 -0.12 -0.35 c 0.19 0 0.2 0.15 0.23 0.29 S 109.88 114.37 109.87 114.41 Z" stroke-linecap="round" />
</g>
		<g transform="matrix(1 0 0 1 37.05 50.90034727356832)"  >
<path style="stroke: none; stroke-width: 1; stroke-dasharray: none; stroke-linecap: butt; stroke-dashoffset: 0; stroke-linejoin: miter; stroke-miterlimit: 4; fill: rgb(0,0,0); fill-rule: nonzero; opacity: 1;"  transform=" translate(-111.985, -114.17534727356832)" d="M 111.92 114 c 0.08 0.06 0.12 0.16 0.24 0.18 c 0 0.08 -0.09 0.18 -0.24 0.17 s 0 -0.1 0.06 -0.11 a 0.41 0.41 0 0 0 -0.17 -0.12 C 111.82 114.05 111.92 114.08 111.92 114 Z" stroke-linecap="round" />
</g>
		<g transform="matrix(1 0 0 1 36.48728897376274 44.910000000000004)"  >
<path style="stroke: none; stroke-width: 1; stroke-dasharray: none; stroke-linecap: butt; stroke-dashoffset: 0; stroke-linejoin: miter; stroke-miterlimit: 4; fill: rgb(0,0,0); fill-rule: nonzero; opacity: 1;"  transform=" translate(-111.42228897376273, -108.185)" d="M 111.45 108.42 c -0.07 0 -0.09 -0.1 -0.17 -0.12 c 0.14 -0.17 0.25 -0.2 0 -0.24 c 0 -0.15 0.27 0 0.23 -0.11 C 111.65 108 111.48 108.3 111.45 108.42 Z" stroke-linecap="round" />
</g>
		<g transform="matrix(1 0 0 1 36.91848806419196 43.492526631962285)"  >
<path style="stroke: none; stroke-width: 1; stroke-dasharray: none; stroke-linecap: butt; stroke-dashoffset: 0; stroke-linejoin: miter; stroke-miterlimit: 4; fill: rgb(0,0,0); fill-rule: nonzero; opacity: 1;"  transform=" translate(-111.85348806419196, -106.76752663196228)" d="M 111.92 106.89 a 0.29 0.29 0 0 0 -0.17 -0.06 c 0 -0.1 0.1 -0.15 0 -0.18 s 0.1 0.09 0.23 0 C 112 106.78 111.94 106.81 111.92 106.89 Z" stroke-linecap="round" />
</g>
		<g transform="matrix(1 0 0 1 37.9 45.576022645791724)"  >
<path style="stroke: none; stroke-width: 1; stroke-dasharray: none; stroke-linecap: butt; stroke-dashoffset: 0; stroke-linejoin: miter; stroke-miterlimit: 4; fill: rgb(0,0,0); fill-rule: nonzero; opacity: 1;"  transform=" translate(-112.83500000000001, -108.85102264579172)" d="M 112.69 108.77 a 0.37 0.37 0 0 1 0.29 -0.06 a 0.37 0.37 0 0 0 0 0.29 c -0.11 -0.11 -0.11 0 -0.29 0 C 112.79 108.89 112.69 108.93 112.69 108.77 Z" stroke-linecap="round" />
</g>
		<g transform="matrix(1 0 0 1 51.10693989784625 26.810000000000002)"  >
<path style="stroke: none; stroke-width: 1; stroke-dasharray: none; stroke-linecap: butt; stroke-dashoffset: 0; stroke-linejoin: miter; stroke-miterlimit: 4; fill: rgb(0,0,0); fill-rule: nonzero; opacity: 1;"  transform=" translate(-126.04193989784625, -90.08500000000001)" d="M 126 89.91 c 0.15 0 0 0.27 0.18 0.18 c 0 0.12 -0.26 0 -0.23 0.17 C 125.8 90.18 126.07 90.06 126 89.91 Z" stroke-linecap="round" />
</g>
		<g transform="matrix(1 0 0 1 43.09222222222224 37.5108055281475)"  >
<path style="stroke: none; stroke-width: 1; stroke-dasharray: none; stroke-linecap: butt; stroke-dashoffset: 0; stroke-linejoin: miter; stroke-miterlimit: 4; fill: rgb(0,0,0); fill-rule: nonzero; opacity: 1;"  transform=" translate(-118.02722222222224, -100.7858055281475)" d="M 118.15 100.66 c 0 0.16 0.1 0.12 0 0.23 s -0.11 -0.15 -0.29 -0.11 A 0.28 0.28 0 0 1 118.15 100.66 Z" stroke-linecap="round" />
</g>
		<g transform="matrix(1 0 0 1 42.68241495169039 35.57102020007685)"  >
<path style="stroke: none; stroke-width: 1; stroke-dasharray: none; stroke-linecap: butt; stroke-dashoffset: 0; stroke-linejoin: miter; stroke-miterlimit: 4; fill: rgb(0,0,0); fill-rule: nonzero; opacity: 1;"  transform=" translate(-117.61741495169039, -98.84602020007685)" d="M 117.68 98.73 c 0.19 0.09 -0.07 0.35 -0.17 0.17 S 117.67 98.83 117.68 98.73 Z" stroke-linecap="round" />
</g>
		<g transform="matrix(1 0 0 1 42.600190748412274 39.07893190365141)"  >
<path style="stroke: none; stroke-width: 1; stroke-dasharray: none; stroke-linecap: butt; stroke-dashoffset: 0; stroke-linejoin: miter; stroke-miterlimit: 4; fill: rgb(0,0,0); fill-rule: nonzero; opacity: 1;"  transform=" translate(-117.53519074841228, -102.35393190365141)" d="M 117.39 102.43 c 0 -0.07 0.13 -0.07 0.12 -0.18 s 0.18 0 0.17 0.18 S 117.57 102.39 117.39 102.43 Z" stroke-linecap="round" />
</g>
		<g transform="matrix(1 0 0 1 49.24 35.660508642365386)"  >
<path style="stroke: none; stroke-width: 1; stroke-dasharray: none; stroke-linecap: butt; stroke-dashoffset: 0; stroke-linejoin: miter; stroke-miterlimit: 4; fill: rgb(0,0,0); fill-rule: nonzero; opacity: 1;"  transform=" translate(-124.17500000000001, -98.93550864236539)" d="M 124 99 c 0 -0.09 0.09 -0.15 0.11 -0.23 s 0.11 0.06 0.12 0 s 0.12 0.19 0.12 0.35 C 124.14 99.16 124.2 99 124 99 Z" stroke-linecap="round" />
</g>
		<g transform="matrix(1 0 0 1 51.13999999999998 27.36375484503403)"  >
<path style="stroke: none; stroke-width: 1; stroke-dasharray: none; stroke-linecap: butt; stroke-dashoffset: 0; stroke-linejoin: miter; stroke-miterlimit: 4; fill: rgb(0,0,0); fill-rule: nonzero; opacity: 1;"  transform=" translate(-126.07499999999999, -90.63875484503403)" d="M 126.32 91 A 0.36 0.36 0 0 1 126 91 c 0.21 -0.08 0.08 -0.33 -0.17 -0.29 c 0.12 -0.14 0.09 -0.12 0.06 -0.35 c 0.09 0 0.11 0 0.11 -0.12 a 0.33 0.33 0 0 1 0 0.36 c 0.19 0.07 0 0.25 0.3 0.23 Z" stroke-linecap="round" />
</g>
		<g transform="matrix(1 0 0 1 -6.894999999999996 55.030000000000015)"  >
<path style="stroke: none; stroke-width: 1; stroke-dasharray: none; stroke-linecap: butt; stroke-dashoffset: 0; stroke-linejoin: miter; stroke-miterlimit: 4; fill: rgb(0,0,0); fill-rule: nonzero; opacity: 1;"  transform=" translate(-68.04, -118.305)" d="M 68.12 118.29 l -0.16 0 C 68 118.33 68.06 118.33 68.12 118.29 Z" stroke-linecap="round" />
</g>
		<g transform="matrix(1 0 0 1 15.846913951774148 -55.419999999999995)"  >
<path style="stroke: none; stroke-width: 1; stroke-dasharray: none; stroke-linecap: butt; stroke-dashoffset: 0; stroke-linejoin: miter; stroke-miterlimit: 4; fill: rgb(0,0,0); fill-rule: nonzero; opacity: 1;"  transform=" translate(-90.78191395177416, -7.855)" d="M 82.11 6.25 c 0.32 1.17 1.9 -0.27 0.89 0.89 c 0.81 0.6 1.63 -2.37 2.44 -1.11 c -1 0.4 -0.79 0.7 -1.56 1.56 c 0 0.32 0 0.65 0 1 c 0.64 0.1 1.27 0.21 1.91 0.33 c -0.39 -0.47 -0.63 -1.24 -1 -1.76 c 1.46 -0.25 1 1.51 2.45 2 a 0.78 0.78 0 0 1 -0.14 0 l 0.5 0.11 a 0.78 0.78 0 0 1 0.93 0.23 c 1.19 0.3 2.37 0.63 3.55 1 c 0.46 0.15 0.9 0.34 1.36 0.5 a 1.35 1.35 0 0 1 0.47 -1 a 3.4 3.4 0 0 1 0.19 1.25 c 1.58 0.59 3.14 1.23 4.67 2 a 14.2 14.2 0 0 1 0.69 -2.55 c -0.67 -0.07 -1.12 -1.48 -2.23 -2.22 c -0.06 -0.32 0.23 -0.64 0.52 -1 a 8 8 0 0 1 -0.55 -0.79 a 0.71 0.71 0 0 1 -0.15 0.32 s 0 0 0 0 c 0.1 0.21 0.19 0.34 0.47 0.24 c -0.11 0.33 -0.46 -0.11 -0.59 0.29 a 0.47 0.47 0 0 1 -0.26 -0.2 a 1.9 1.9 0 0 1 -0.35 0.2 c 0.2 -0.81 0.48 -1.12 0.66 -1.14 a 4.5 4.5 0 0 1 -0.66 -2.73 c -0.62 -0.22 -1.23 -0.44 -1.85 -0.63 s -1.25 -0.4 -1.87 -0.58 c -1 1.72 -3.43 2.6 -6.29 2.59 a 1.24 1.24 0 0 0 -0.21 0.27 a 0.76 0.76 0 0 1 -0.35 -0.27 c -0.36 0 -0.73 0 -1.1 -0.1 c 0 0.08 -0.06 0.14 -0.11 0.14 s -0.12 -0.08 -0.12 -0.16 a 2.48 2.48 0 0 0 -0.27 0 c -0.36 -0.06 -0.7 -0.14 -1 -0.22 C 83.4 5.51 82 5.36 82.11 6.25 Z M 95.44 8 c 0.21 0.37 0 0.74 0.22 1.11 c -0.3 0.23 -0.59 -0.21 -0.89 -0.44 Z M 94.11 4.47 c 0.22 0.34 -0.22 0.67 -0.45 0.45 C 93.72 4.59 93.79 4.26 94.11 4.47 Z m 0 2.67 c -0.37 0.22 -0.74 0 -1.11 0.23 C 92.53 6.72 93.84 6.49 94.11 7.14 Z m -3.78 -0.66 c -0.3 0.18 -0.6 -0.3 -0.89 0 C 88.92 5.77 90.13 5.77 90.33 6.48 Z m -0.67 0.66 c -0.21 -0.3 0.1 -0.34 0.22 -0.22 C 90.09 7.21 89.79 7.27 89.66 7.14 Z m 0 0.89 l 0.67 0.67 C 90 9.68 88.69 8.35 89.66 8 Z M 88.55 6.92 c 0.23 0.42 -0.22 0.17 -0.44 0.45 C 87.88 7 88.32 6.7 88.55 6.92 Z m -0.67 -1.55 a 1.49 1.49 0 0 0 0.45 0.88 c -0.3 0.46 -0.59 0.25 -0.89 0 c -0.23 0.15 -0.12 0.3 0 0.45 c -0.15 0.23 -0.3 0.12 -0.44 0 l -0.45 -0.45 C 87 5.44 87.44 6 87.88 5.37 Z m -1.55 1.1 l 0.67 0.67 C 86.67 8.12 85.35 6.8 86.33 6.47 Z" stroke-linecap="round" />
</g>
		<g transform="matrix(1 0 0 1 -24.380000000000003 -42.46)"  >
<path style="stroke: none; stroke-width: 1; stroke-dasharray: none; stroke-linecap: butt; stroke-dashoffset: 0; stroke-linejoin: miter; stroke-miterlimit: 4; fill: rgb(0,0,0); fill-rule: nonzero; opacity: 1;"  transform=" translate(-50.555, -20.814999999999998)" d="M 80.77 5.37 c 0.61 -0.21 1.21 -0.57 1.82 -0.77 a 10.19 10.19 0 0 1 -4.21 -2.19 a 0.18 0.18 0 0 0 0 0.07 a 0.23 0.23 0 0 1 -0.07 -0.18 A 4.62 4.62 0 0 1 77 0.32 a 0.47 0.47 0 0 0 -0.24 0 a 0.87 0.87 0 0 0 0 -0.19 C 76.06 0.61 76 2.33 75 1.36 c 0.84 -0.26 0.58 -1.57 1.11 -1.11 A 0.22 0.22 0 0 0 76.23 0 L 74.92 0 L 73 0 a 5.67 5.67 0 0 1 -3.09 3.51 c 0 0.54 -0.6 0.59 -1.17 0.56 L 68 4.38 c 0 0.54 -0.5 0.37 -1.18 1.2 c -0.2 1.26 1.46 1.06 2 1.56 c -0.6 1 -1.19 -0.81 -1.78 0 C 66.73 6 65.17 6 66.22 4.84 L 65.68 5 a 15.07 15.07 0 0 1 -2.2 0.15 a 2.8 2.8 0 0 1 -0.48 0.26 a 1 1 0 0 1 -0.17 -0.27 a 10 10 0 0 1 -1.59 -0.19 l 0 0 c 0.84 0.26 0.59 1.57 1.11 1.11 c 0.13 1.66 -1.24 -0.94 -1.33 -0.45 a 2.53 2.53 0 0 1 -0.13 -0.76 a 5.43 5.43 0 0 1 -3.64 -2.31 c -0.62 0.18 -1.25 0.37 -1.87 0.58 s -1.23 0.41 -1.85 0.63 c 0.28 2.44 -2 5.2 -5.4 6.93 A 11.11 11.11 0 0 1 41.71 12 l -0.49 0.5 c -0.31 -0.22 -0.26 -0.44 -0.31 -0.66 A 4.08 4.08 0 0 1 39.32 11 l -0.75 0.53 l 0.09 0 c 0 0.12 -0.22 0.28 -0.17 0.31 s 0.2 -0.12 0.29 0 c 0.21 0.29 -0.1 0.34 -0.22 0.22 s 0 0 0 -0.07 a 0.41 0.41 0 0 0 -0.17 0 c 0.15 0 0 0.3 0.3 0.23 c 0 0.11 0 0.25 -0.18 0.24 c 0.06 0 0 0.22 0.18 0.18 c -0.07 0.17 0 0.42 -0.18 0.52 c -0.09 -0.05 -0.23 0 -0.18 -0.23 c -0.32 0.28 -0.46 0.18 -0.82 0.18 c 0 -0.21 0.06 -0.26 0.12 -0.36 a 1.25 1.25 0 0 0 0.64 0 a 1 1 0 0 0 -0.35 -0.79 l -0.17 0.12 l -1.56 1.17 c 1 2.23 -0.33 5.58 -3 8.26 s -6 4 -8.26 3 c -0.39 0.52 -0.79 1 -1.17 1.56 s -0.76 1.06 -1.13 1.6 c 1.66 1.81 1.4 5.42 -0.31 8.78 c -0.23 0.45 -0.48 0.86 -0.74 1.27 c 0.22 -0.06 0.53 -0.06 0.79 -0.15 c 0.52 0.82 -0.69 0.27 -0.89 0.89 a 1.14 1.14 0 0 1 -0.15 -0.37 A 10.39 10.39 0 0 1 18.46 41 c 0 0.1 -0.07 0.19 -0.12 0.19 s -0.06 0 -0.08 0 l -0.2 0.1 a 2.17 2.17 0 0 0 0.64 0.21 a 10.38 10.38 0 0 0 1.67 0.08 c 0.88 0 1.77 -0.07 2.65 -0.14 a 1.64 1.64 0 0 1 0.91 0.19 a 54.18 54.18 0 0 1 3.67 -7.1 a 2 2 0 0 1 -0.37 -0.4 a 1 1 0 0 1 0.72 -0.19 c 0.45 -0.71 0.92 -1.4 1.4 -2.09 c -0.08 -0.12 0 -0.39 0.1 -0.39 a 0.11 0.11 0 0 1 0.11 0.07 l 0.06 -0.09 h 0 c 0 -0.06 0 -0.06 0.06 0 l 0.06 -0.1 l -0.27 -0.27 l 0.45 -0.45 l 0.19 0.2 a 55.22 55.22 0 0 1 4.45 -5.32 c -0.78 -0.66 0.61 -1.33 0.68 -2 c 0.09 -0.37 -0.28 -0.74 0.23 -1.11 l 1.08 1.08 a 54.45 54.45 0 0 1 5.81 -4.91 A 55.17 55.17 0 0 1 74.92 7.84 a 56.71 56.71 0 0 1 8.13 0.6 C 82.41 7.42 81.15 6.39 80.77 5.37 Z m -55 21.32 c -0.06 -0.16 -0.49 -0.5 -0.3 -0.53 c 0 -0.13 -0.25 0 -0.35 -0.06 c 0.17 -0.29 0.55 -0.36 0.65 -0.7 c 0.26 0.2 0 0.72 0.17 0.88 C 25.88 26.45 25.66 26.42 25.73 26.69 Z m 1.41 -0.41 c -0.27 -0.17 -0.34 -0.53 -0.47 -0.83 c 0.18 0 0.19 0.13 0.17 0.3 c 0.11 -0.06 0.08 -0.24 0.3 -0.18 c 0 0.08 0 0.17 0.06 0.18 C 27 25.9 27.11 26.06 27.14 26.28 Z m 0.71 1.82 c 0.2 -0.08 0.4 0.19 0.35 -0.12 c 0.09 0.28 0.35 0.39 0.41 0.71 a 0.82 0.82 0 0 1 -0.65 -0.12 C 28.05 28.29 27.82 28.32 27.85 28.1 Z M 29 29.59 a 0.09 0.09 0 0 1 -0.09 -0.06 a 1.44 1.44 0 0 1 0.16 1 a 0.36 0.36 0 0 0 -0.58 -0.12 c -0.21 0 -0.26 -0.17 -0.23 -0.41 c 0.18 0.05 0.17 -0.09 0.29 -0.12 c 0.13 -0.39 -0.15 -0.45 -0.12 -0.88 c 0.17 0.05 0.15 -0.08 0.29 -0.06 s 0 0.07 -0.11 0.06 c 0.09 0.19 0.19 0.34 0.28 0.51 c 0 -0.13 0 -0.35 0.11 -0.35 C 29.23 29.14 29.13 29.59 29 29.59 Z m 6.67 -10.23 c -0.21 -0.22 0.1 -0.44 0.22 -0.66 C 36.1 18.92 35.79 19.14 35.67 19.36 Z m 2 0.67 c -0.23 -0.46 0.22 -0.25 0.44 0 C 38.34 20.49 37.9 20.27 37.67 20 Z m 6.22 -4.45 c 0.44 -0.57 0.89 0.4 1.33 0 C 45.58 16.07 43.61 16.6 43.89 15.58 Z m 1 -0.18 c 0 -0.21 0.07 -0.28 0.12 -0.41 c 0.24 0 0.23 0.21 0.35 0.3 A 0.27 0.27 0 0 1 44.88 15.4 Z M 48.56 14 c -0.21 -0.22 0.1 -0.44 0.22 -0.67 C 49 13.58 48.68 13.81 48.56 14 Z M 77.66 3.14 a 1.39 1.39 0 0 1 -1.33 -0.44 C 76.78 2.36 77.22 2.57 77.66 3.14 Z m -3.55 -0.89 s 0.7 -0.55 0.67 -0.22 S 73.16 2.57 74.11 2.25 Z m -3.56 4 c -0.53 -0.58 -0.27 -1.12 -1.11 -0.67 c -0.16 -1.78 2.35 0.46 2.22 -1.32 c 0.91 -0.47 -0.42 0.84 0.23 1.11 C 71.44 6 71 5.44 70.55 6.25 Z m 2.67 1.34 c -0.21 -0.3 0.1 -0.35 0.22 -0.22 C 73.65 7.66 73.34 7.71 73.22 7.59 Z m 1.11 0.22 c -0.22 -0.33 0.22 -0.67 0.45 -0.44 C 75 7.79 74.56 7.54 74.33 7.81 Z m 2.16 -0.57 l -0.21 0.1 l 0 0.07 l -0.06 0 l 0 0 a 0.91 0.91 0 0 1 -0.14 -0.81 C 76.53 6.5 76.5 6.88 76.49 7.24 Z m -2.38 -1 c -1.23 -1.42 -1.08 0.06 -2.22 0.89 c -1.17 -0.89 0.65 -1.78 1.33 -2.67 c 0.15 -0.36 -1.42 -0.89 0 -1.77 c 0.56 0.37 0.43 0.74 0.67 1.11 A 0.87 0.87 0 0 0 75 3.59 c 0 1.32 0.94 0 1.55 1.11 A 7.07 7.07 0 0 0 74.11 6.25 Z m 1.37 -3 a 0.4 0.4 0 0 1 0.19 0.56 a 0.67 0.67 0 0 1 -0.52 -0.17 c -0.16 -0.16 0.21 -0.25 0.27 -0.4 a 0.3 0.3 0 0 0 -0.2 0.17 c -0.23 -0.43 0.37 -0.2 0.67 -0.67 c 0.42 0.37 0.19 0.74 0.66 1.11 C 76.2 4.42 75.84 3.29 75.48 3.21 Z m 1.74 2.16 c 1 -0.41 0.52 1 1.33 1.33 C 78 7.1 77.2 5.69 77.22 5.37 Z M 79 5.81 c -0.21 -0.23 0.1 -0.44 0.22 -0.67 C 79.43 5.37 79.12 5.58 79 5.81 Z M 81 4.7 c 0.06 0 0.71 -0.56 0.67 -0.23 S 80.05 5 81 4.7 Z" stroke-linecap="round" />
</g>
		<g transform="matrix(1 0 0 1 40.99999999999999 -36.97999999999999)"  >
<path style="stroke: none; stroke-width: 1; stroke-dasharray: none; stroke-linecap: butt; stroke-dashoffset: 0; stroke-linejoin: miter; stroke-miterlimit: 4; fill: rgb(0,0,0); fill-rule: nonzero; opacity: 1;"  transform=" translate(-115.935, -26.295)" d="M 129.24 41.47 a 2.09 2.09 0 0 1 0.31 0.24 a 2.87 2.87 0 0 0 0.42 -0.09 c 0.58 -0.16 1.16 -0.33 1.74 -0.46 a 11.34 11.34 0 0 1 -4.16 -4.7 a 11.62 11.62 0 0 1 -1.4 -5.87 c -0.3 0.08 -0.51 -0.06 -0.83 -0.26 c -0.11 0 -0.12 0.07 -0.24 0.06 c 0.24 0.09 0 0.24 -0.17 0.12 c 0.1 -0.09 0.08 -0.28 0.29 -0.24 a 0.16 0.16 0 0 0 -0.17 -0.12 c 0 -0.12 0.3 -0.22 0 -0.29 c 0.24 0 0.4 0 0.71 0.06 c 0 -0.16 0 -0.25 -0.18 -0.24 c 0 -0.11 0.2 0 0.18 -0.17 c 0.14 0.09 0.07 0.4 0.41 0.29 a 0.53 0.53 0 0 1 0 0.22 a 4.37 4.37 0 0 1 1 -2.34 c -0.33 -0.47 -0.66 -0.95 -1 -1.41 c -0.18 0 -0.43 0 -0.51 -0.11 c -0.17 0.05 0.08 0.14 0 0.29 s -0.21 0 -0.17 -0.17 c -0.35 0.38 -0.66 -0.08 -1 0 c 0 -0.12 0.17 -0.12 0.06 -0.24 c -0.23 0.08 -0.53 0 -0.53 0.18 c -0.16 -0.18 -0.32 0 -0.53 -0.12 c 0.23 -0.11 -0.09 -0.33 0 -0.65 c 0.06 0 0 0.08 0.06 0.12 c 0.14 -0.19 0.42 -0.09 0.58 0 s 0 -0.24 0.24 -0.24 c 0 0.12 0 0.2 0.12 0.24 c -0.1 0.06 -0.12 0.2 -0.24 0.24 c 0 0.22 0.23 0 0.24 0.11 s 0 -0.14 0.06 -0.23 c 0.19 0.11 0.17 0.12 0.29 0.35 c 0.11 -0.34 -0.31 -0.39 -0.06 -0.71 c 0 -0.06 -0.47 0.09 -0.47 -0.17 c 0.16 0 0.12 0.12 0.24 0.12 c 0 -0.16 -0.16 -0.2 -0.3 -0.24 s 0 -0.23 0.05 -0.35 a 6.54 6.54 0 0 1 -4.76 -0.94 c -0.07 0 -0.14 -0.06 -0.17 0 a 0.46 0.46 0 0 1 0 -0.1 c -0.27 -0.16 -0.55 -0.33 -0.82 -0.52 a 0.34 0.34 0 0 1 0 0.21 c 0.07 0.17 0.37 0.1 0.3 0.41 c -0.11 0 -0.12 0.05 -0.06 0.06 s -0.27 0 -0.18 0.17 c -0.19 0 -0.35 -0.11 -0.41 0.12 c -0.27 0 -0.23 -0.35 -0.35 -0.53 c -0.19 0.17 -0.27 -0.11 -0.47 -0.11 a 2.37 2.37 0 0 0 0.53 -0.18 c -0.06 -0.34 -0.16 -0.35 -0.24 -0.71 a 0.56 0.56 0 0 1 -0.76 -0.41 a 0.61 0.61 0 0 1 0.31 -0.13 c -0.18 -0.17 -0.38 -0.33 -0.56 -0.51 s -0.2 -0.23 -0.31 -0.34 a 0.07 0.07 0 0 0 0 0.1 c -0.14 0.24 -0.37 -0.23 -0.41 0.06 a 0.57 0.57 0 0 1 0 -0.6 l -0.39 -0.48 s 0 0 0 0 a 0.39 0.39 0 0 0 -0.23 -0.06 c 0 -0.1 0 -0.15 0 -0.21 c -0.21 -0.28 -0.41 -0.56 -0.59 -0.85 a 0.94 0.94 0 0 0 0 0.48 c -0.08 0.16 -0.13 -0.19 -0.3 -0.12 c -0.08 -0.61 -0.53 -1 -0.3 -1.5 c 0 0 0 0 0 0 s 0 -0.12 -0.09 -0.19 h 0 s 0 -0.05 -0.12 -0.08 l 0.08 0 a 5.7 5.7 0 0 1 -0.44 -4 l -0.09 0 c 0.08 0.19 -0.15 0.39 -0.26 0.58 a 0.2 0.2 0 0 1 0 -0.23 l -0.24 0 a 0.44 0.44 0 0 1 0.46 -0.41 c -0.11 -0.14 -0.24 -0.31 0 -0.46 c -0.09 0 -0.11 -0.09 -0.24 -0.18 s 0.06 0 0.06 0 l 0.07 0 c -0.37 -0.28 -0.74 -0.56 -1.12 -0.83 s -1.06 -0.76 -1.59 -1.13 a 4.38 4.38 0 0 1 -2 1 a 2.45 2.45 0 0 0 0.8 1.19 a 0.27 0.27 0 0 1 0.26 -0.11 c 0 -0.32 0 -0.88 0 -1.18 c 0.06 0 0.06 0.14 0.18 0.12 c 0 -0.19 -0.18 -0.13 -0.12 -0.35 c 0.09 0 0.24 0.22 0.3 0.06 c 0.16 0 -0.14 0.16 0.12 0.11 c -0.26 0.2 0 0.4 0.11 0.59 a 0.73 0.73 0 0 0 -0.27 0.37 c 0.11 0.17 0 0.24 -0.07 0.25 a 2.44 2.44 0 0 0 0 0.26 c -0.07 0 0 -0.06 0 -0.06 c -0.15 -0.18 -0.15 0.17 -0.32 0.08 c 0.06 0 0.1 0.08 0.17 0.11 h 0 s 0 0.05 0 0.11 s -0.21 0 -0.21 -0.1 c -0.51 -0.08 -1 -0.73 -1.54 -0.89 A 2.08 2.08 0 0 0 108 12 a 8.84 8.84 0 0 1 -2.5 -0.07 c 0 0.08 -0.12 0 -0.2 0 c 0.11 0.19 0 0.25 0.17 0.35 c -0.09 0.18 -0.23 -0.08 -0.41 0 c 0 -0.06 0.07 0 0.12 -0.06 c -0.07 -0.2 0 -0.27 -0.08 -0.39 a 14.11 14.11 0 0 1 -2.81 -0.95 l 0 0 a 8.89 8.89 0 0 0 -2.13 3 l 0.91 0.5 c 0.21 -0.06 0.3 0 0.36 0.2 a 57.38 57.38 0 0 1 5.3 3.25 c 0.12 -0.4 -0.07 -0.58 -0.48 -0.56 c -0.16 -0.1 0 -0.15 0 -0.35 c 0.24 -0.19 0.52 0.2 0.58 -0.06 c 0.18 0.24 0.17 0.66 0.65 0.59 a 1.89 1.89 0 0 0 -0.22 0.72 l 0.26 0.18 c 0.61 0.44 1.18 0.93 1.76 1.39 h 0 v 0 c 0.46 0.36 0.91 0.74 1.36 1.12 s 1.12 1 1.69 0.86 c 0 0.25 -0.11 0.34 -0.33 0.33 c 0.33 0.3 0.67 0.59 1 0.9 a 1.11 1.11 0 0 1 0.35 -0.11 c -0.08 0.07 -0.17 0.13 -0.24 0.2 l 0.14 0.13 l 0.21 0 c 0.2 0 -0.15 0.23 0.12 0.18 c 0 0.08 0 0.09 -0.09 0.08 a 56.71 56.71 0 0 1 6.29 7.21 c 0.76 1 1.47 2.13 2.16 3.22 c 0 -0.07 0.08 -0.1 0 -0.23 h 0.35 c 0 0.06 -0.07 0 -0.11 0.06 s 0.18 0.11 0.06 0.23 c 0.06 0.1 0.25 0.07 0.35 0.12 c -0.22 0.17 -0.38 -0.14 -0.65 -0.11 a 55.2 55.2 0 0 1 4 7.78 h 1 A 1.85 1.85 0 0 1 129.24 41.47 Z m -0.63 -2 c 0.09 0 0.09 0.19 0.12 0.29 c -0.14 0 -0.17 0.1 -0.36 0.06 c 0 -0.11 -0.06 -0.13 -0.05 -0.24 S 128.6 39.62 128.61 39.5 Z m -27 -25.25 c -0.1 -0.66 -0.41 -1.33 0.22 -2 C 102.61 12.92 102.07 13.59 101.66 14.25 Z m 1.51 -0.26 c -0.15 -0.13 -0.29 0.11 -0.47 0.12 a 0.17 0.17 0 0 0 -0.17 -0.12 c 0 -0.21 0 -0.4 -0.24 -0.35 c 0 -0.23 0.24 -0.15 0.35 -0.12 c -0.21 0.26 0.14 0.13 0 0.47 c 0.2 -0.16 0.08 -0.32 0.24 -0.47 c 0.07 0.1 0.33 0 0.41 0.12 S 103.14 13.81 103.17 14 Z m 1.64 -1.34 c -0.1 -0.14 -0.15 -0.32 -0.37 -0.35 c 0 0.09 -0.06 0.18 -0.11 0.18 c -0.24 0 -0.13 -0.45 0 -0.45 s 0 0 0.07 0.05 v 0 a 1.28 1.28 0 0 0 0.71 0.29 C 105 12.45 104.92 12.56 104.81 12.65 Z m 1.47 1.87 c 0.08 -0.17 -0.27 0 -0.29 -0.23 c -0.06 0 0 0.07 -0.06 0.12 s -0.15 -0.24 -0.41 -0.18 c 0 -0.05 0.06 -0.06 0.06 -0.12 s -0.24 -0.26 0.06 -0.29 c 0 0.17 0.08 0.15 0 0.29 c 0.06 -0.17 0.27 -0.18 0.36 -0.17 s -0.07 0 -0.12 0.05 c 0.32 0 0.2 0.47 0.47 0.42 C 106.56 14.53 106.27 14.46 106.28 14.52 Z m 0.18 -1.35 c -0.18 -0.11 -0.44 0.13 -0.71 0.12 c 0 -0.06 0.07 0 0.12 -0.06 s -0.13 -0.06 -0.12 -0.17 c 0.47 0.06 0.3 -0.39 0.59 -0.71 c 0.12 0 0.16 0 0.24 0.06 c 0 0.23 -0.13 0.3 0.06 0.41 C 106.53 12.88 106.39 12.93 106.46 13.17 Z m 1 3.53 c -0.07 -0.3 0.12 -0.35 0.18 -0.53 C 108.05 16.33 107.89 16.66 107.46 16.7 Z m 1.29 -2.18 c -0.08 -0.06 -0.14 -0.06 -0.17 0.06 s 0 -0.06 0 -0.06 c 0 -0.25 -0.27 -0.28 -0.3 -0.53 c 0.33 0.15 0.26 0 0.53 0.24 A 0.37 0.37 0 0 0 108.75 14.52 Z m 4 -0.46 c 0 0.13 0.12 0.3 0 0.4 C 112.43 14.29 112.51 14.15 112.75 14.06 Z m -2.53 6 c -0.33 0 0 -0.29 -0.35 -0.24 c 0 -0.22 -0.07 -0.16 0 -0.35 a 0.24 0.24 0 0 0 0.35 -0.06 c 0.11 0 0 0.19 0.18 0.18 C 110.37 19.82 110.23 19.89 110.22 20.11 Z m 0.12 -1.41 c 0 0.13 -0.31 0 -0.36 0 s 0.57 -0.09 0.36 -0.41 c 0.18 0 0.23 -0.13 0.35 0 C 110.65 18.48 110.41 18.63 110.34 18.7 Z m 1.29 0.41 c 0 -0.21 0.18 -0.17 0.18 -0.35 c 0.17 0 0.19 0.23 0.17 0.46 C 111.78 19.27 111.73 19.16 111.63 19.11 Z m 1.14 0 c 0 -0.19 -0.07 -0.39 -0.1 -0.58 l -0.15 -0.16 c -0.19 0.29 -0.75 0.09 -0.77 -0.29 a 1 1 0 0 1 0.64 0.29 c 0.13 0 0.15 -0.15 0.24 -0.15 l -0.09 -0.58 a 0.24 0.24 0 0 1 -0.09 0 a 0.12 0.12 0 0 1 0.06 -0.15 a 2.68 2.68 0 0 0 -0.07 -0.27 c -0.12 0.06 -0.22 0.13 -0.22 0.42 h -0.3 c 0.13 -0.31 0 -0.16 -0.29 -0.18 a 0.9 0.9 0 0 0 0.06 -0.7 c 0 0.13 0.38 0.13 0.23 0 c 0 -0.18 0.13 0.05 0.24 0 c 0 0.13 -0.11 0.08 -0.12 0.17 s 0.14 -0.11 0.29 -0.06 a 2.77 2.77 0 0 0 -0.1 -0.26 a 0.19 0.19 0 0 0 -0.19 0 a 0.63 0.63 0 0 1 0.12 -0.1 a 3.65 3.65 0 0 0 -0.5 -0.73 c -1.11 -0.61 -1.56 -0.51 -2.23 -1.78 c 1.12 0.26 2.23 1.65 3.34 0.67 a 3.24 3.24 0 0 0 0.09 2.5 a 0.25 0.25 0 0 0 0 -0.21 c 0.08 -0.12 0.2 0.06 0.35 -0.06 c 0 0.07 0 0.11 0 0.12 c -0.09 0.23 -0.09 0.07 0 0.29 c -0.09 0 -0.1 0.05 -0.11 0.12 a 0.52 0.52 0 0 1 -0.12 -0.17 a 0.45 0.45 0 0 0 0 0.3 a 0.19 0.19 0 0 0 0 0.08 a 0.4 0.4 0 0 0 0.2 0.26 A 0.58 0.58 0 0 0 113 18 A 1.92 1.92 0 0 1 112.77 19.14 Z m 0.62 3.55 a 0.32 0.32 0 0 0 -0.23 -0.06 c 0.1 -0.3 0 -0.42 0 -0.7 c 0 -0.06 0.21 0 0.18 -0.18 c 0.36 0.11 0.07 0.58 0.47 0.59 C 113.69 22.48 113.4 22.45 113.39 22.69 Z m 0.18 -0.17 c 0.29 -0.09 0.47 0.08 0.59 -0.18 c 0.06 0 0.06 0.14 0.17 0.12 c -0.26 0.14 0.06 0.2 0.06 0.41 c 0 0.05 -0.16 0 -0.17 0.12 c -0.22 -0.23 -0.35 0 -0.65 -0.3 C 113.48 22.66 113.59 22.62 113.57 22.52 Z m 0.82 0.52 a 1.75 1.75 0 0 1 -0.23 0.24 c 0 0.18 0.12 -0.06 0.23 0 a 0.38 0.38 0 0 0 -0.06 0.24 a 1.16 1.16 0 0 1 -0.7 -0.24 V 23 c 0.25 0.06 0.32 -0.05 0.41 0.12 c 0.08 0 0.32 -0.3 0.41 -0.06 C 114.4 23.11 114.4 23.08 114.39 23 Z m 0.16 -1.23 c -0.21 -0.29 0.1 -0.35 0.22 -0.22 C 115 21.88 114.67 21.93 114.55 21.81 Z m 0.84 0.71 c -0.08 -0.1 -0.46 -0.15 -0.47 0 s 0 -0.44 -0.17 -0.42 c 0.15 -0.18 0.3 -0.15 0.59 -0.11 c 0 0.17 -0.19 0.33 0.11 0.29 C 115.46 22.39 115.38 22.4 115.39 22.52 Z m 4.17 2.64 c -0.07 -0.08 -0.27 0 -0.35 -0.12 a 0.32 0.32 0 0 0 -0.18 0.18 c 0 0.16 0.12 0.11 0.18 0.18 c -0.21 0.12 -0.24 0.15 -0.18 0.47 c -0.17 0 -0.22 -0.13 -0.47 -0.18 c 0.14 -0.13 0.12 -0.22 -0.12 -0.24 c 0.09 -0.34 0.4 -0.1 0.53 -0.35 c -0.09 -0.06 -0.16 0.07 -0.35 0.06 a 0.22 0.22 0 0 0 0.06 -0.18 c 0.19 0 0.18 -0.11 0.29 0 s 0.06 -0.22 0.18 -0.23 c -0.08 -0.11 -0.38 0 -0.35 -0.24 c -0.21 0.06 0 0.24 0 0.3 s -0.13 -0.06 -0.24 0 c 0 -0.36 -0.16 -0.37 -0.06 -0.65 c 0 0.17 0.39 0.11 0.12 0 c 0.32 -0.15 0.11 0.37 0.35 0.47 c 0 -0.08 0.23 0 0.24 -0.12 c 0.11 0.22 0.16 0.12 0.35 0.24 Z m 5.35 2.52 a 3.68 3.68 0 0 1 0.53 -0.05 c 0.16 0.09 -0.12 0.26 0.12 0.23 c 0 0.13 -0.21 0.15 -0.3 0.24 s 0.23 0.12 0.18 0.35 s -0.23 0 -0.24 0.12 s 0 -0.2 -0.12 -0.24 a 0.46 0.46 0 0 0 -0.11 0.18 C 124.7 28.25 125.11 28.07 124.91 27.68 Z M 125 32.8 c 0 -0.06 -0.07 0 -0.12 -0.06 c 0.07 -0.17 0.18 -0.2 0.35 -0.12 c 0 -0.09 0 -0.1 -0.06 -0.17 s 0.33 0.23 0.47 0.29 c 0 0.36 -0.16 0.39 -0.23 0.7 c -0.12 0 -0.29 -0.1 -0.41 0.06 c -0.09 -0.16 -0.34 -0.16 -0.47 -0.29 C 124.64 33.05 124.88 33 125 32.8 Z m -0.83 -3.59 c -0.32 0 -0.61 -0.25 -0.82 0 a 0.45 0.45 0 0 1 -0.41 -0.41 a 0.16 0.16 0 0 0 0.12 -0.17 C 123.66 28.56 123.87 28.92 124.14 29.21 Z M 122.68 26 c 0.34 0 0.33 0.05 0.7 0.06 c -0.15 0.26 0.22 0.38 0.06 0.65 c -0.29 -0.18 -0.57 -0.21 -0.82 -0.53 A 0.3 0.3 0 0 0 122.68 26 Z m -2.36 -1.51 c 0.23 0.46 -0.21 0.25 -0.44 0 C 119.66 24 120.1 24.23 120.32 24.47 Z m 0.12 2.57 c -0.24 -0.05 -0.31 0.07 -0.41 0.18 c -0.13 -0.11 -0.37 -0.1 -0.35 -0.35 c 0.1 0 0.1 0.05 0.18 0.05 c 0.13 -0.23 -0.11 -0.27 -0.12 -0.53 c 0.17 0.07 0.37 -0.06 0.59 -0.11 s 0 0.19 0.24 0.11 C 120.35 26.54 120.41 26.78 120.44 27 Z m 0.36 -1.17 c -0.09 -0.22 -0.28 0 -0.23 0.23 c 0 0.08 -0.23 0 -0.24 0.12 a 1.05 1.05 0 0 1 -0.12 -0.47 c 0.16 0.05 0.5 -0.15 0.59 -0.06 S 120.77 25.76 120.8 25.87 Z m 0.35 0 c 0.19 0 0.21 0.22 0.41 0.11 c -0.07 0.35 0.54 0.25 0.41 0.47 c 0.51 0 0.69 0.37 1.12 0.47 c 0 0.19 0.1 0.38 0.35 0.36 v 0.29 c -0.17 -0.13 -0.21 -0.07 -0.47 -0.06 c 0.08 -0.32 -0.35 -0.33 -0.53 -0.64 c 0 0.13 -0.08 0.05 -0.17 0.11 c -0.09 -0.15 -0.24 -0.24 -0.24 -0.47 a 0.29 0.29 0 0 1 -0.17 0.06 C 121.82 26.12 121.24 26.35 121.15 25.87 Z m 1 3.93 a 0.3 0.3 0 0 1 -0.24 -0.47 c 0.16 0.06 0.11 0.32 0.41 0.24 C 122.3 29.68 122.1 29.61 122.15 29.8 Z m 0.12 1.41 c 0 -0.25 0.24 -0.19 0 -0.41 c 0.1 0 0.12 -0.05 0.12 -0.12 c 0.35 0.08 0.06 0.4 0.36 0.36 c -0.2 0.07 0 0.25 -0.12 0.35 S 122.43 31.25 122.27 31.21 Z m 0.7 1.53 c -0.23 0 -0.4 -0.28 -0.17 -0.41 c 0 0.08 0.18 0.13 0 0.29 a 0.16 0.16 0 0 0 0.18 -0.12 a 1.17 1.17 0 0 0 -0.18 -0.41 c 0 -0.09 0.45 0.07 0.47 -0.17 c 0.34 0.09 -0.2 0.45 0.12 0.53 C 123.44 32.7 122.9 32.42 123 32.74 Z m 1.71 1.35 c 0 -0.15 -0.3 0.16 -0.24 -0.12 c -0.12 0 0 0.3 -0.24 0.24 s -0.29 -0.36 -0.53 -0.24 c 0 -0.15 0.23 0 0.18 -0.23 c -0.22 0 -0.2 -0.3 -0.41 -0.35 c 0 -0.07 0.12 0 0.12 -0.12 s 0.17 0.33 0.29 0.12 c 0.13 0 0.13 0.14 0.12 0.29 c 0.18 0 0.17 -0.1 0.35 -0.06 c -0.11 0.21 0.06 0.19 0.18 0.29 c 0.12 -0.12 0.19 -0.11 0.47 -0.17 a 0.38 0.38 0 0 0 -0.18 -0.12 c 0.06 -0.09 0.19 -0.08 0.29 -0.12 s 0 0.11 0 0.12 c 0.38 0.28 -0.15 0.68 0.11 0.94 C 124.94 34.65 124.46 34.29 124.68 34.09 Z m 0.4 0.88 c 0.48 -0.18 0.31 0.36 0.3 0.47 s -0.15 0.05 -0.24 0.06 S 125.1 35.15 125.08 35 Z m 0.18 2.17 c 0 -0.09 0.38 -0.27 0.41 0 Z m 0.82 -2.4 c -0.12 -0.29 0 -0.14 -0.35 -0.12 c 0 -0.31 0.15 -0.44 0.47 -0.41 c -0.08 0 0 0.22 -0.12 0.23 c 0.06 0.16 0.13 -0.18 0.24 0 C 126.26 34.56 126.06 34.54 126.08 34.74 Z" stroke-linecap="round" />
</g>
		<g transform="matrix(1 0 0 1 23.18531515878429 -51.29705652259345)"  >
<path style="stroke: none; stroke-width: 1; stroke-dasharray: none; stroke-linecap: butt; stroke-dashoffset: 0; stroke-linejoin: miter; stroke-miterlimit: 4; fill: rgb(0,0,0); fill-rule: nonzero; opacity: 1;"  transform=" translate(-98.1203151587843, -11.977943477406548)" d="M 98.17 11.82 c 0 0.19 0 0.24 0.06 0.3 s -0.15 -0.07 -0.23 -0.06 C 98.1 12 97.91 11.83 98.17 11.82 Z" stroke-linecap="round" />
</g>
		<g transform="matrix(1 0 0 1 21.190448871255427 -53.465)"  >
<path style="stroke: none; stroke-width: 1; stroke-dasharray: none; stroke-linecap: butt; stroke-dashoffset: 0; stroke-linejoin: miter; stroke-miterlimit: 4; fill: rgb(0,0,0); fill-rule: nonzero; opacity: 1;"  transform=" translate(-96.12544887125543, -9.809999999999999)" d="M 96.1 9.59 c 0.23 0 0.13 0.44 0 0.44 S 96 9.59 96.1 9.59 Z" stroke-linecap="round" />
</g>
		<g transform="matrix(1 0 0 1 20.968952420493856 -51.91)"  >
<path style="stroke: none; stroke-width: 1; stroke-dasharray: none; stroke-linecap: butt; stroke-dashoffset: 0; stroke-linejoin: miter; stroke-miterlimit: 4; fill: rgb(0,0,0); fill-rule: nonzero; opacity: 1;"  transform=" translate(-95.90395242049385, -11.365)" d="M 95.88 11.14 c 0.24 0 0.13 0.45 0 0.45 S 95.76 11.14 95.88 11.14 Z" stroke-linecap="round" />
</g>
		<g transform="matrix(1 0 0 1 19.689416090803775 -53.616248248682915)"  >
<path style="stroke: none; stroke-width: 1; stroke-dasharray: none; stroke-linecap: butt; stroke-dashoffset: 0; stroke-linejoin: miter; stroke-miterlimit: 4; fill: rgb(0,0,0); fill-rule: nonzero; opacity: 1;"  transform=" translate(-94.62441609080378, -9.658751751317084)" d="M 94.33 10 c -0.15 -1.5 1.42 -0.07 0 0 Z" stroke-linecap="round" />
</g>
		<g transform="matrix(1 0 0 1 12.484720466326003 -55.495000000000005)"  >
<path style="stroke: none; stroke-width: 1; stroke-dasharray: none; stroke-linecap: butt; stroke-dashoffset: 0; stroke-linejoin: miter; stroke-miterlimit: 4; fill: rgb(0,0,0); fill-rule: nonzero; opacity: 1;"  transform=" translate(-87.419720466326, -7.779999999999999)" d="M 87.44 8 c -0.23 0 -0.12 -0.44 0 -0.44 S 87.57 8 87.44 8 Z" stroke-linecap="round" />
</g>
		<g transform="matrix(1 0 0 1 42.519999999999996 -40.980000000000004)"  >
<path style="stroke: none; stroke-width: 1; stroke-dasharray: none; stroke-linecap: butt; stroke-dashoffset: 0; stroke-linejoin: miter; stroke-miterlimit: 4; fill: rgb(0,0,0); fill-rule: nonzero; opacity: 1;"  transform=" translate(-117.455, -22.294999999999998)" d="M 117.39 22.4 h 0.25 l -0.23 -0.21 a 0.67 0.67 0 0 0 -0.14 0.09 C 117.35 22.29 117.41 22.3 117.39 22.4 Z" stroke-linecap="round" />
</g>
		<g transform="matrix(1 0 0 1 47.922113885585944 -35.51)"  >
<path style="stroke: none; stroke-width: 1; stroke-dasharray: none; stroke-linecap: butt; stroke-dashoffset: 0; stroke-linejoin: miter; stroke-miterlimit: 4; fill: rgb(0,0,0); fill-rule: nonzero; opacity: 1;"  transform=" translate(-122.85711388558595, -27.765)" d="M 122.73 28 c -0.24 0 0.07 -0.22 -0.11 -0.3 c 0 -0.05 0.13 -0.05 0.11 -0.17 c 0 0.13 0.41 -0.05 0.36 0.17 c -0.07 0 -0.11 0 -0.12 -0.05 s 0 0.1 -0.06 0.17 C 122.79 27.68 122.69 27.78 122.73 28 Z" stroke-linecap="round" />
</g>
		<g transform="matrix(1 0 0 1 49.209999999999994 -32.29516634913588)"  >
<path style="stroke: none; stroke-width: 1; stroke-dasharray: none; stroke-linecap: butt; stroke-dashoffset: 0; stroke-linejoin: miter; stroke-miterlimit: 4; fill: rgb(0,0,0); fill-rule: nonzero; opacity: 1;"  transform=" translate(-124.145, -30.979833650864116)" d="M 124.32 31 c -0.06 0.17 -0.25 0 -0.35 0 a 0.29 0.29 0 0 1 0.29 -0.11 C 124.26 30.93 124.28 31 124.32 31 Z" stroke-linecap="round" />
</g>
		<g transform="matrix(1 0 0 1 47.22771906169736 -37.70105111266352)"  >
<path style="stroke: none; stroke-width: 1; stroke-dasharray: none; stroke-linecap: butt; stroke-dashoffset: 0; stroke-linejoin: miter; stroke-miterlimit: 4; fill: rgb(0,0,0); fill-rule: nonzero; opacity: 1;"  transform=" translate(-122.16271906169736, -25.573948887336478)" d="M 122.21 25.4 c 0.11 0 0 0.35 0.18 0.29 c 0 0.13 -0.21 0 -0.3 0.06 c 0 -0.14 0 -0.22 -0.12 -0.24 S 122.07 25.38 122.21 25.4 Z" stroke-linecap="round" />
</g>
		<g transform="matrix(1 0 0 1 36.20262935297199 -46.446488825001005)"  >
<path style="stroke: none; stroke-width: 1; stroke-dasharray: none; stroke-linecap: butt; stroke-dashoffset: 0; stroke-linejoin: miter; stroke-miterlimit: 4; fill: rgb(0,0,0); fill-rule: nonzero; opacity: 1;"  transform=" translate(-111.137629352972, -16.828511174998994)" d="M 111.1 17 c -0.09 -0.09 -0.3 -0.36 0 -0.35 c 0 0.06 -0.07 0 -0.12 0.06 s 0.08 0 0.12 0.06 s -0.06 0.06 -0.06 0.12 s 0.31 -0.12 0.29 0.11 C 111.23 17.05 111.14 16.82 111.1 17 Z" stroke-linecap="round" />
</g>
		<g transform="matrix(1 0 0 1 36.89590864197531 -45.519999999999996)"  >
<path style="stroke: none; stroke-width: 1; stroke-dasharray: none; stroke-linecap: butt; stroke-dashoffset: 0; stroke-linejoin: miter; stroke-miterlimit: 4; fill: rgb(0,0,0); fill-rule: nonzero; opacity: 1;"  transform=" translate(-111.83090864197531, -17.755000000000003)" d="M 111.69 17.76 c 0 -0.06 0.13 -0.06 0.12 -0.18 c 0 0.09 0.32 0.35 0.06 0.35 c 0 -0.05 0 -0.05 0 -0.05 A 0.23 0.23 0 0 0 111.69 17.76 Z" stroke-linecap="round" />
</g>
		<g transform="matrix(1 0 0 1 38.85280894847129 -42.61)"  >
<path style="stroke: none; stroke-width: 1; stroke-dasharray: none; stroke-linecap: butt; stroke-dashoffset: 0; stroke-linejoin: miter; stroke-miterlimit: 4; fill: rgb(0,0,0); fill-rule: nonzero; opacity: 1;"  transform=" translate(-113.7878089484713, -20.665)" d="M 113.75 20.52 c 0.13 0 0.12 0.15 0.11 0.29 C 113.65 20.79 113.71 20.66 113.75 20.52 Z" stroke-linecap="round" />
</g>
		<g transform="matrix(1 0 0 1 37.10364308390022 -50.9813314614109)"  >
<path style="stroke: none; stroke-width: 1; stroke-dasharray: none; stroke-linecap: butt; stroke-dashoffset: 0; stroke-linejoin: miter; stroke-miterlimit: 4; fill: rgb(0,0,0); fill-rule: nonzero; opacity: 1;"  transform=" translate(-112.03864308390021, -12.293668538589095)" d="M 111.92 12.23 c 0.19 -0.07 0.15 0.1 0.24 0.12 S 111.82 12.43 111.92 12.23 Z" stroke-linecap="round" />
</g>
		<g transform="matrix(1 0 0 1 51.24139675426357 -32.92)"  >
<path style="stroke: none; stroke-width: 1; stroke-dasharray: none; stroke-linecap: butt; stroke-dashoffset: 0; stroke-linejoin: miter; stroke-miterlimit: 4; fill: rgb(0,0,0); fill-rule: nonzero; opacity: 1;"  transform=" translate(-126.17639675426358, -30.355)" d="M 126.19 30.21 a 0.4 0.4 0 0 0 0 0.29 A 2.54 2.54 0 0 1 126.19 30.21 Z" stroke-linecap="round" />
</g>
		<g transform="matrix(1 0 0 1 38.42500000000002 -49.580555555555556)"  >
<path style="stroke: none; stroke-width: 1; stroke-dasharray: none; stroke-linecap: butt; stroke-dashoffset: 0; stroke-linejoin: miter; stroke-miterlimit: 4; fill: rgb(0,0,0); fill-rule: nonzero; opacity: 1;"  transform=" translate(-113.36000000000001, -13.694444444444445)" d="M 113.36 13.69 h 0 s 0 0 0 0 S 113.36 13.71 113.36 13.69 Z" stroke-linecap="round" />
</g>
		<g transform="matrix(1 0 0 1 -35.47104593216346 -43.37375)"  >
<path style="stroke: none; stroke-width: 1; stroke-dasharray: none; stroke-linecap: butt; stroke-dashoffset: 0; stroke-linejoin: miter; stroke-miterlimit: 4; fill: rgb(0,0,0); fill-rule: nonzero; opacity: 1;"  transform=" translate(-39.46395406783654, -19.90125)" d="M 39.22 20.25 c -0.41 -0.93 1.42 -0.93 0 0 Z" stroke-linecap="round" />
</g>
		<g transform="matrix(1 0 0 1 -37.913137971051164 -45.04991964388947)"  >
<path style="stroke: none; stroke-width: 1; stroke-dasharray: none; stroke-linecap: butt; stroke-dashoffset: 0; stroke-linejoin: miter; stroke-miterlimit: 4; fill: rgb(0,0,0); fill-rule: nonzero; opacity: 1;"  transform=" translate(-37.02186202894884, -18.22508035611053)" d="M 37 18 c 0.23 0 0.13 0.44 0 0.45 S 36.88 18 37 18 Z" stroke-linecap="round" />
</g>
		<g transform="matrix(1 0 0 1 -38.57472046632599 -44.8)"  >
<path style="stroke: none; stroke-width: 1; stroke-dasharray: none; stroke-linecap: butt; stroke-dashoffset: 0; stroke-linejoin: miter; stroke-miterlimit: 4; fill: rgb(0,0,0); fill-rule: nonzero; opacity: 1;"  transform=" translate(-36.36027953367401, -18.475)" d="M 36.34 18.25 c 0.23 0 0.12 0.45 0 0.45 S 36.21 18.25 36.34 18.25 Z" stroke-linecap="round" />
</g>
		<g transform="matrix(1 0 0 1 -40.80132209185433 -39.46508211568651)"  >
<path style="stroke: none; stroke-width: 1; stroke-dasharray: none; stroke-linecap: butt; stroke-dashoffset: 0; stroke-linejoin: miter; stroke-miterlimit: 4; fill: rgb(0,0,0); fill-rule: nonzero; opacity: 1;"  transform=" translate(-34.13367790814567, -23.80991788431349)" d="M 34.11 23.59 c 0.23 0 0.13 0.44 0 0.44 S 34 23.58 34.11 23.59 Z" stroke-linecap="round" />
</g>
		<g transform="matrix(1 0 0 1 -46.83686202894884 -33.91)"  >
<path style="stroke: none; stroke-width: 1; stroke-dasharray: none; stroke-linecap: butt; stroke-dashoffset: 0; stroke-linejoin: miter; stroke-miterlimit: 4; fill: rgb(0,0,0); fill-rule: nonzero; opacity: 1;"  transform=" translate(-28.098137971051163, -29.365000000000002)" d="M 28.12 29.59 c -0.23 0 -0.13 -0.45 0 -0.45 S 28.24 29.59 28.12 29.59 Z" stroke-linecap="round" />
</g>
		<g transform="matrix(1 0 0 1 -47.242826731299054 -36.135)"  >
<path style="stroke: none; stroke-width: 1; stroke-dasharray: none; stroke-linecap: butt; stroke-dashoffset: 0; stroke-linejoin: miter; stroke-miterlimit: 4; fill: rgb(0,0,0); fill-rule: nonzero; opacity: 1;"  transform=" translate(-27.692173268700948, -27.14)" d="M 27.67 26.92 c 0.23 0 0.12 0.44 0 0.44 S 27.55 26.92 27.67 26.92 Z" stroke-linecap="round" />
</g>
		<g transform="matrix(1 0 0 1 -53.932500004205636 -22.998749999999998)"  >
<path style="stroke: none; stroke-width: 1; stroke-dasharray: none; stroke-linecap: butt; stroke-dashoffset: 0; stroke-linejoin: miter; stroke-miterlimit: 4; fill: rgb(0,0,0); fill-rule: nonzero; opacity: 1;"  transform=" translate(-21.002499995794366, -40.276250000000005)" d="M 21 40.25 c 1.29 0.07 -1.28 0.07 0 0 Z" stroke-linecap="round" />
</g>
		<g transform="matrix(1 0 0 1 -54.79492580681872 -23.245082115686504)"  >
<path style="stroke: none; stroke-width: 1; stroke-dasharray: none; stroke-linecap: butt; stroke-dashoffset: 0; stroke-linejoin: miter; stroke-miterlimit: 4; fill: rgb(0,0,0); fill-rule: nonzero; opacity: 1;"  transform=" translate(-20.140074193181285, -40.02991788431349)" d="M 20.12 39.81 c 0.22 0 0.12 0.44 0 0.44 S 20 39.8 20.12 39.81 Z" stroke-linecap="round" />
</g>
		<g transform="matrix(1 0 0 1 -0.10500000000000398 36.467325478389405)"  >
<path style="stroke: none; stroke-width: 1; stroke-dasharray: none; stroke-linecap: butt; stroke-dashoffset: 0; stroke-linejoin: miter; stroke-miterlimit: 4; fill: rgb(0,0,0); fill-rule: nonzero; opacity: 1;"  transform=" translate(-74.83, -99.7423254783894)" d="M 121 84.82 l -0.27 0 a 7.37 7.37 0 0 0 -0.9 0.22 c -0.06 0 -0.52 0.19 -0.5 0.17 l -0.29 0.16 A 49.23 49.23 0 0 1 30.83 85 a 5.09 5.09 0 0 0 -1.19 -0.37 H 29 a 1.49 1.49 0 0 0 -0.64 0.63 a 51.53 51.53 0 0 0 92.94 0.66 A 1.69 1.69 0 0 1 121 84.82 Z" stroke-linecap="round" />
</g>
		<g transform="matrix(1 0 0 1 0.2381028772663285 -36.546833505672595)"  >
<path style="stroke: none; stroke-width: 1; stroke-dasharray: none; stroke-linecap: butt; stroke-dashoffset: 0; stroke-linejoin: miter; stroke-miterlimit: 4; fill: rgb(0,0,0); fill-rule: nonzero; opacity: 1;"  transform=" translate(-75.17310287726633, -26.728166494327404)" d="M 119.37 41.41 a 6.37 6.37 0 0 0 0.55 0.35 h 1.4 a 0.73 0.73 0 0 0 0.21 -0.22 a 1.68 1.68 0 0 1 -0.2 -0.93 a 51.53 51.53 0 0 0 -92.51 -0.19 s 0 0 0 0.06 c 0.08 0.5 -0.21 0.3 0.37 0.44 a 1.39 1.39 0 0 0 1.21 -0.11 a 14.32 14.32 0 0 0 2 -2.28 l 0 0 A 49.2 49.2 0 0 1 118.94 41 C 119.09 41.17 119.27 41.34 119.37 41.41 Z" stroke-linecap="round" />
</g>
		<g transform="matrix(1 0 0 1 0.2000000000000064 -0.03963416089947103)"  >
<path style="stroke: none; stroke-width: 1; stroke-dasharray: none; stroke-linecap: butt; stroke-dashoffset: 0; stroke-linejoin: miter; stroke-miterlimit: 4; fill: rgb(0,0,0); fill-rule: nonzero; opacity: 1;"  transform=" translate(-75.135, -63.235365839100524)" d="M 59.59 41.69 s 0 0.05 0.08 0.07 h 30 v 0 h 0.14 v 0 h 3 v 0 c -0.06 -0.16 -0.29 -0.14 -0.45 -0.2 a 0.13 0.13 0 0 0 -0.14 -0.1 c -0.12 -0.29 -0.37 -0.45 -0.45 -0.79 s -0.45 -0.23 -0.39 -0.64 c 0 -0.07 0.05 -0.09 0.11 -0.11 l -0.09 -0.06 l 0 0 a 3.79 3.79 0 0 1 -0.54 -0.19 a 1.62 1.62 0 0 1 0 -0.21 L 90.26 39 l -0.13 0 a 0.64 0.64 0 0 1 -0.49 -0.25 a 0.26 0.26 0 0 1 0 -0.18 a 28.49 28.49 0 0 0 -28.72 -0.17 a 1.07 1.07 0 0 1 -0.43 1.2 c -0.34 -0.24 -0.15 -0.56 0 -0.94 a 28.12 28.12 0 0 0 -4.16 3 h 3.28 Z M 74.2 41 c -0.09 -0.09 0.13 -0.23 0.18 -0.18 S 74.25 41 74.2 41 Z m 15.39 -1.39 a 0.55 0.55 0 0 1 0.34 0.34 c 0.19 0 0.22 -0.27 0.45 -0.29 s 0.13 0.36 0.14 0.59 h -0.64 c -0.27 -0.06 -0.34 -0.31 -0.59 -0.39 C 89.3 39.65 89.49 39.66 89.59 39.57 Z m -1.87 -0.35 s 0 0.07 0 0.05 S 87.7 39.21 87.72 39.22 Z m -3.5 0.64 c 0.11 0.23 -0.26 0.57 -0.44 0.5 C 83.78 40.05 84 39.76 84.22 39.86 Z M 81.14 38.4 h 0.37 v 0.37 h -0.37 Z M 79 41.07 a 0.42 0.42 0 0 1 0.5 0 c 0 0.28 -0.1 0.41 -0.34 0.42 c 0 -0.08 -0.1 -0.06 -0.16 -0.08 Z m -0.27 -4.31 c 0.41 -0.49 -0.26 0.58 -0.19 0.55 C 78 37.55 78.75 36.78 78.77 36.76 Z m -2.24 0.13 a 0.69 0.69 0 0 1 -0.09 0.75 c -0.31 0 -0.46 -0.25 -0.41 -0.66 C 76.12 36.88 76.32 36.88 76.53 36.89 Z M 76.44 38 c -0.21 1.8 2.44 0.74 2.18 2.59 c -0.91 0.13 -1 -0.55 -1.59 -0.75 c -0.39 0.14 -0.32 0.74 -0.5 1.09 c -1 0 -1.31 -0.81 -1.68 -1.51 c 0.11 -0.56 0.45 -0.89 0.51 -1.5 C 75.73 38 76.17 37.9 76.44 38 Z M 75.3 37 a 0.29 0.29 0 0 1 -0.14 0.05 c -0.18 -0.08 -0.52 0 -0.55 -0.2 C 74.81 36.76 75.26 36.79 75.3 37 Z m -0.83 2.9 a 0.39 0.39 0 0 1 -0.6 0 c 0 -0.22 0.19 -0.34 0.25 -0.54 a 1 1 0 0 1 -0.05 -0.69 m 0 2 a 3.78 3.78 0 0 1 0 0.89 c -0.15 0 -0.19 0.11 -0.29 0 C 73.87 41.29 73.69 40.72 74.07 40.7 Z M 61.42 39.13 c 0.09 0.1 -0.14 0.24 -0.19 0.19 S 61.37 39.08 61.42 39.13 Z M 60 41.32 c 0 0.21 -0.18 0.11 -0.18 0 S 60 41.22 60 41.32 Z m 27.59 46 H 87 c -0.14 0 -0.36 0 -0.37 0.18 C 86.89 87.44 87.57 87.75 87.54 87.36 Z M 61.68 84.63 H 56.13 a 28.84 28.84 0 0 0 4.13 3.06 a 0.89 0.89 0 0 0 0.54 -0.53 c 0 -0.07 -0.08 -0.08 -0.08 -0.17 c 0 -0.42 -0.67 -0.28 -0.75 -0.67 a 4.92 4.92 0 0 1 0.16 -0.91 A 8 8 0 0 0 61.68 84.63 Z m -0.81 0.35 c 0 0.23 -0.37 0.19 -0.37 0 S 60.66 85 60.87 85 Z M 92.22 86.2 c 0.67 -0.5 1.31 -1 1.92 -1.57 H 87.46 c -0.14 0.53 0.3 1.08 -0.65 1.08 c 0 0.47 0.85 0.26 0.36 0.73 c 0.51 0 0.63 0.28 0.37 0.55 c 0.43 -0.27 0.34 -0.38 0.91 -0.18 c 0 0.71 -1 0.33 -0.55 1.09 c -0.69 -0.08 -1.14 0.08 -1.28 0.55 a 1.94 1.94 0 0 1 0.55 -2 c -0.59 0.17 -0.25 -0.59 -0.55 -0.73 c -1 -0.34 -1.4 0.44 -2 -0.18 c 0.27 -0.29 1.24 -0.59 0.19 -0.73 c 0.36 -0.53 0.87 0.33 1.09 0.55 c 0.29 -0.53 0.36 -0.11 1.1 -0.19 a 0.47 0.47 0 0 0 0.21 -0.53 H 62.7 c 0.13 0.25 0.49 0.27 0.78 0.36 c 0.09 0.34 -0.18 0.32 -0.17 0.58 s 0.27 0.34 0.25 0.67 a 1.39 1.39 0 0 0 -0.83 1.51 c -0.21 0 -0.41 0 -0.42 0.16 c 0.06 0.67 0.92 0.53 0.92 1.26 a 0.22 0.22 0 0 1 0 0.08 A 27.72 27.72 0 0 0 67 90.68 c 0.28 0 0.56 0 0.82 0.08 a 3.47 3.47 0 0 0 1 -0.5 c 0.58 0.1 0.74 -0.21 1.26 -0.17 c 0 0.32 -0.44 0.23 -0.59 0.42 c -0.33 0 -0.42 0.19 -0.75 0.16 c -0.17 0.12 -0.42 0.17 -0.56 0.32 a 30.71 30.71 0 0 0 3.85 0.7 l 0 -0.1 a 5.67 5.67 0 0 0 1.76 -0.5 a 7 7 0 0 1 1.09 0.25 c 0 0.21 0.15 0.32 0.18 0.53 h 0 a 28.39 28.39 0 0 0 12 -2.67 c 0.06 -0.26 0.48 -0.46 0 -0.56 c 0.16 -0.5 0.27 0.18 0.47 0.33 l 0.12 -0.06 c 0.17 -0.46 0.72 -0.53 0.69 -1.19 H 89 c -0.24 -0.45 0.41 -0.88 0 -0.91 c 0.63 -0.74 0.12 0.9 0.36 0.73 a 1.94 1.94 0 0 1 -1.09 0.91 a 0.46 0.46 0 0 0 0 0.21 a 28.74 28.74 0 0 0 3.82 -2.38 c -0.37 0.1 -1 0 -1 -0.29 a 0.39 0.39 0 0 1 0.25 -0.08 C 91.6 86 92.13 85.9 92.22 86.2 Z m -27.07 0.71 c -0.35 -0.17 -0.24 -0.63 0.25 -0.59 C 65.58 86.53 65.47 86.94 65.15 86.91 Z m 0.17 -1.5 c -0.25 0 -0.37 0.24 -0.75 0.16 c 0 -0.17 -0.23 -0.16 -0.25 -0.33 s 0.13 -0.26 0.16 -0.42 c 0.59 0.18 1.23 -0.18 1.51 0.25 C 66 85.39 65.66 85.41 65.32 85.41 Z m 6.36 2.84 a 0.53 0.53 0 0 1 -0.25 -0.76 h 0.25 C 71.84 87.67 71.74 88.05 71.68 88.25 Z m 0.51 0.75 c -0.09 -0.09 0.13 -0.23 0.18 -0.18 S 72.24 89.05 72.19 89 Z m 0.55 -0.91 c 0 -0.21 0.18 -0.1 0.18 0 S 72.74 88.19 72.74 88.09 Z m 9 -1.83 c 0.59 0.16 0.57 -0.28 0.73 -0.55 c 0.36 -0.07 0.27 0.83 -0.18 0.55 a 1.19 1.19 0 0 1 -0.18 0.91 a 0.9 0.9 0 0 0 -0.55 -0.18 C 81.48 86.66 81.73 86.61 81.69 86.26 Z M 81 85.9 c -0.18 0.55 -0.49 -0.22 -0.73 -0.19 C 80.41 85.15 80.84 85.79 81 85.9 Z M 78 89.18 a 0.5 0.5 0 0 1 0.54 -0.36 A 0.49 0.49 0 0 1 78 89.18 Z m 0.54 -2.74 c -0.43 -0.39 -0.32 -0.68 -0.18 -1.09 C 78.9 85.35 78.84 86.21 78.58 86.44 Z m 0.55 2 c 0.62 -0.44 -0.44 0.62 0 0 Z M 79.68 87 c -0.09 -0.09 0.13 -0.23 0.18 -0.18 S 79.73 87 79.68 87 Z m 0.73 2.19 c -0.09 -0.09 0.14 -0.23 0.19 -0.18 S 80.46 89.23 80.41 89.18 Z m -0.18 -1.09 a 0.19 0.19 0 0 1 0.37 0 C 80.52 88.35 80.43 88.07 80.23 88.09 Z m -0.37 -2.19 c 0.32 0.29 0.86 0.35 1.1 0.73 C 80.88 86.81 79.63 86.63 79.86 85.9 Z M 81 90.1 c 0.61 -0.45 -0.44 0.61 0 0 Z m 1.1 0.18 c -0.48 0 -0.79 -0.07 -0.73 -0.55 C 81.8 89.68 82.24 89.67 82.06 90.28 Z m 0.18 -1.83 c -0.1 -0.09 0.13 -0.23 0.18 -0.18 S 82.29 88.5 82.24 88.45 Z m 0.55 0.37 c 0 -0.33 0.22 -0.39 0.18 -0.73 c 0.32 0.16 0.33 0.64 0.55 0.91 C 83.36 89.54 83.37 88.45 82.79 88.82 Z m 0.91 -0.37 c -0.44 -0.11 -0.1 -0.92 0.37 -0.73 C 84 88 83.79 88.18 83.7 88.45 Z M 84.43 87 c -0.4 0 -0.58 -0.15 -0.55 -0.55 c -0.24 0.06 -0.15 0.46 -0.18 0.73 c -0.22 -0.67 -1 -0.08 -1.28 -0.36 c 0 -0.21 0.34 -0.16 0.55 -0.18 a 1.94 1.94 0 0 1 0.91 -0.92 a 0.69 0.69 0 0 1 0 -0.91 a 2.89 2.89 0 0 1 0.92 2 C 84.58 86.78 84.47 86.85 84.43 87 Z m 1.1 1.65 H 84.8 c 0 -0.54 0.41 -0.68 0.73 -0.92 c 0 -0.69 0 -1.14 -0.19 -1.28 c 0.07 -0.25 0.33 0 0.37 0.19 c 0.38 0 -0.27 -0.49 0.18 -0.73 c 0.16 0.11 0.33 0.22 0.37 0 C 86.43 86.5 85.75 87.82 85.53 88.64 Z" stroke-linecap="round" />
</g>
		<g transform="matrix(1 0 0 1 1.421085e-14 0.012828314740620073)"  >
<path style="stroke: none; stroke-width: 1; stroke-dasharray: none; stroke-linecap: butt; stroke-dashoffset: 0; stroke-linejoin: miter; stroke-miterlimit: 4; fill: rgb(0,0,0); fill-rule: nonzero; opacity: 1;"  transform=" translate(-74.93500000000002, -63.28782831474062)" d="M 138.63 81.2 h 0.24 C 138.82 81.12 138.74 81.15 138.63 81.2 Z m 1.09 -2.68 h -0.35 a 0.46 0.46 0 0 1 -0.29 0.17 c 0 0.17 0.22 0.14 0.37 0.18 c -0.59 0.21 -0.4 1.18 -0.92 1.46 c -0.08 0.57 0.39 0.58 0.92 0.55 c -0.06 -0.21 -0.81 -0.76 0 -0.73 c -0.3 -0.28 -0.27 -1 0.36 -0.91 A 1 1 0 0 0 139.72 78.52 Z m 8.86 -0.56 a 0.85 0.85 0 0 1 -0.18 0.54 c 0.37 -0.11 1.27 0.3 1.09 -0.36 C 148.92 78.34 149 78.22 148.58 78 Z M 17.35 45.35 h -0.09 v 0.07 S 17.33 45.37 17.35 45.35 Z M 3.43 48 H 14 c -0.09 -0.24 0 -0.66 -0.38 -0.6 c 0.35 -0.59 -0.35 -1.28 0.73 -1.28 c 0 -0.47 -0.85 -0.26 -0.36 -0.73 a 0.66 0.66 0 0 1 -0.35 -0.07 H 3.3 a 6.12 6.12 0 0 0 -2.13 1.2 L 0.06 48.74 l 0.21 0 c 0 0.14 -0.14 0.14 -0.27 0.16 m 1.92 -1.44 c 0 0.17 -0.22 0.13 -0.37 0.18 C 1.56 47.43 1.78 47.47 1.92 47.43 Z m 0 1.09 c 0 0.21 -0.18 0.1 -0.18 0 S 1.92 48.42 1.92 48.52 Z m 0.91 -0.18 c 0 -0.18 0.23 -0.14 0.37 -0.19 C 3.19 48.33 3 48.3 2.83 48.34 Z M 149.31 78 c 0.21 0 0.28 0.2 0.36 0.36 s -0.14 0.28 -0.13 0.39 l 0.33 -0.66 C 149.61 77.9 149.42 77.73 149.31 78 Z m -0.55 1.09 c 0.14 0 0.36 0 0.37 -0.18 C 149 78.91 148.77 78.87 148.76 79.05 Z m 0.7 -31.35 a 15.94 15.94 0 0 1 -1.74 -2.27 l -0.39 -0.08 h -105 a 63.33 63.33 0 0 1 -8.38 0 H 21 a 0.49 0.49 0 0 1 0.24 0.61 c -0.27 -0.25 -0.71 -0.35 -1 -0.61 h -0.81 a 0.47 0.47 0 0 0 0 0.25 c -0.58 -0.16 -0.57 0.28 -0.73 0.55 c -0.35 0.07 -0.26 -0.83 0.19 -0.55 a 1 1 0 0 1 0 -0.25 H 18.1 a 1.77 1.77 0 0 1 -0.84 0.8 a 0.67 0.67 0 0 1 0 0.91 a 3.11 3.11 0 0 1 -0.87 -1.71 h -0.63 a 0.25 0.25 0 0 1 0 0.07 c -0.05 0.2 -0.22 0.08 -0.31 -0.07 h -0.18 c 0 0.15 0.27 0.44 -0.06 0.61 c -0.16 -0.11 -0.32 -0.22 -0.36 0 a 1.28 1.28 0 0 1 0 -0.61 H 14 l 0 0.07 c 0.59 -0.17 0.25 0.59 0.54 0.73 c 1 0.34 1.41 -0.44 2 0.18 c -0.27 0.29 -1.23 0.59 -0.18 0.73 c -0.36 0.53 -0.88 -0.33 -1.1 -0.55 c -0.28 0.53 -0.36 0.11 -1.09 0.18 c -0.54 0.39 0 0.93 0.15 1.34 h 1.24 c 0 -0.1 0 -0.16 -0.3 -0.24 c 0.36 -0.43 0.56 -0.07 0.77 0.24 h 4.36 c 0 -0.2 0 -0.39 0.36 -0.24 a 0.6 0.6 0 0 0 -0.12 0.24 h 2.19 a 0.73 0.73 0 0 1 0.33 0 H 67.19 c 0.1 -0.13 0.25 -0.2 0.29 -0.4 c 0.24 0 0.22 0.25 0.09 0.4 h 2.15 s 0.11 -0.05 0.13 0 s 0 0 0 0 H 100 a 32.18 32.18 0 0 1 5.92 -0.22 a 1.76 1.76 0 0 1 0.85 0.22 h 39.82 M 20.19 46 c 0.17 -0.56 0.48 0.21 0.73 0.19 C 20.74 46.71 20.3 46.06 20.19 46 Z m 2.37 1.83 c -0.09 -0.09 0.13 -0.23 0.18 -0.18 S 22.61 47.84 22.56 47.79 Z m 0.18 -1.28 c -0.5 0 -0.43 -0.86 -0.18 -1.09 C 23 45.81 22.88 46.1 22.74 46.51 Z m 17.54 0.37 a 0.18 0.18 0 0 1 0.36 0 C 40.56 47.14 40.49 46.86 40.28 46.88 Z m 70.12 -1.26 c -0.09 -0.09 0.13 -0.23 0.18 -0.18 S 110.45 45.67 110.4 45.62 Z m 7.49 2.2 c -0.09 -0.1 0.13 -0.24 0.18 -0.19 S 117.94 47.87 117.89 47.82 Z m 1.46 -0.74 c -0.09 -0.09 0.13 -0.23 0.18 -0.18 S 119.4 47.14 119.35 47.08 Z m 7 -0.36 c 0 -0.18 0.22 -0.14 0.36 -0.18 C 126.65 46.72 126.44 46.68 126.3 46.72 Z M 138 47.82 c 0.05 -0.23 0.37 -0.19 0.37 0 C 138.19 47.93 138 48 138 47.82 Z m 1.1 -0.74 c -0.1 -0.09 0.13 -0.23 0.18 -0.18 S 139.13 47.14 139.08 47.08 Z M 1.77 81.2 H 41.71 a 0.38 0.38 0 0 1 0.4 -0.16 a 1 1 0 0 1 0 0.16 h 3 l 0.18 0 c 2.43 -0.35 4.8 0.23 7.23 0 a 15.92 15.92 0 0 1 6.34 0 l 0.11 0 H 84.23 a 1.48 1.48 0 0 1 1.16 -0.3 c 3.07 0.4 6.13 -0.31 9.21 0 a 1.83 1.83 0 0 1 0.84 0.3 h 13.7 c 0 -0.1 0 -0.22 0 -0.32 c 0.3 -0.06 0.34 0.12 0.36 0.32 h 0.39 c 0 -0.12 0.22 -0.1 0.35 -0.14 a 0.14 0.14 0 0 1 -0.13 0.14 h 0.67 s 0 -0.09 0 -0.14 s 0.09 0.1 0.13 0.14 h 1 a 0.48 0.48 0 0 1 0 -0.32 a 5.32 5.32 0 0 0 1.11 0.32 h 17 c 0 -0.11 0.13 -0.07 0.16 0 h 8.21 c -0.38 -0.6 0.2 -1.76 0.06 -2.68 h -0.46 a 0.88 0.88 0 0 1 -0.31 0.35 c -0.16 0 -0.17 -0.07 -0.18 -0.18 a 0.13 0.13 0 0 0 -0.11 -0.17 h -0.8 a 2.39 2.39 0 0 0 0 0.53 a 0.69 0.69 0 0 1 -0.31 -0.53 h -0.86 c -0.13 0.15 -0.33 0.31 -0.12 0 h -1.11 c -0.09 0.2 -0.12 0.46 -0.52 0.35 a 0.61 0.61 0 0 1 0.09 -0.35 h -1 c 0.08 0.22 0.45 0.14 0.72 0.17 a 0.81 0.81 0 0 0 -0.18 0.55 c -0.35 -0.08 -0.34 -0.53 -0.92 -0.37 a 0.61 0.61 0 0 1 0.07 -0.35 h -0.33 a 1.36 1.36 0 0 1 -0.1 0.72 c -0.38 -0.11 -0.39 -0.29 -0.18 -0.55 c -0.27 0.1 -0.95 -0.22 -0.92 0.18 c -0.64 -0.47 -1.36 0 -1.94 -0.35 h -1.53 a 1.79 1.79 0 0 1 -0.68 0.13 c -1.46 0 -2.93 -0.05 -4.4 -0.13 h -5.48 c -0.8 0.1 -1.61 0.22 -2.48 0.36 a 1.82 1.82 0 0 1 -1.43 -0.36 h -2.41 a 1.79 1.79 0 0 1 -0.11 0.35 c -0.27 -0.13 -0.56 -0.23 -0.85 -0.35 h -1 a 0.12 0.12 0 0 1 -0.1 0 H 36.15 a 1.34 1.34 0 0 1 -0.37 0.11 A 32.47 32.47 0 0 1 26 78.52 h -9.2 a 14.5 14.5 0 0 0 -1.57 0.41 a 1.51 1.51 0 0 1 -1.67 -0.41 H 3.42 m -1.5 0.14 c -0.1 -0.09 0.13 -0.23 0.18 -0.18 S 2 78.71 1.92 78.66 Z m 0.91 0.73 c 0 -0.21 0.18 -0.1 0.18 0 S 2.83 79.49 2.83 79.39 Z m 1.65 1.1 c 0 -0.18 0.22 -0.14 0.36 -0.18 C 4.84 80.48 4.62 80.45 4.48 80.49 Z m 0.73 -0.37 c -0.39 0.09 -0.35 -0.26 -0.37 -0.55 c 0.15 0 0.19 0.19 0.37 0.19 Z M 54 79.57 c -0.1 -0.09 0.13 -0.23 0.18 -0.18 S 54 79.62 54 79.57 Z m 50.76 0.76 c -0.15 -0.19 0.16 -0.33 0.18 -0.36 C 105.33 79.26 104.84 80.46 104.74 80.33 Z m 2 0.55 c 0 -0.18 0.22 -0.14 0.36 -0.19 C 107.11 80.87 106.89 80.84 106.75 80.88 Z m 0.91 -1.46 c -0.29 0 -0.31 -0.18 -0.55 -0.18 c -0.06 0.31 0.15 0.34 0.37 0.36 c -0.18 0.56 -0.49 -0.21 -0.73 -0.18 c 0 -0.38 0.49 -0.36 0.54 -0.73 c 0.57 -0.14 0.54 0.31 1.1 0.18 C 108.45 79.35 107.37 78.7 107.66 79.42 Z m 1.28 0.55 c 0 -0.18 0.22 -0.14 0.37 -0.19 C 109.3 80 109.08 79.93 108.94 80 Z m 0.55 0 c -0.1 -0.1 0.13 -0.24 0.18 -0.19 S 109.54 80 109.49 80 Z m 0.55 -0.92 s -0.52 -0.06 -0.37 -0.18 S 110.56 79.31 110 79.05 Z m 0.91 0.55 c 0 -0.18 0.22 -0.14 0.37 -0.18 C 111.31 79.6 111.09 79.56 111 79.6 Z m 0.91 0.73 c -0.55 -0.23 0.2 -0.63 0 -1.09 C 112.27 79.31 112 80.2 111.86 80.33 Z m 1.83 0.18 c 0.08 -0.26 0.16 0 0.36 0 A 0.18 0.18 0 0 1 113.69 80.51 Z m 0.55 0.55 c 0 -0.21 0.18 -0.1 0.18 0 S 114.24 81.16 114.24 81.06 Z m 13.7 -1.82 c -0.27 -0.33 -1 0.34 -0.92 -0.55 h 1.1 A 0.81 0.81 0 0 0 127.94 79.24 Z m 1.83 -0.19 c -0.1 -0.09 0.13 -0.23 0.18 -0.18 S 129.82 79.1 129.77 79.05 Z m 4.56 -0.18 c -0.09 -0.1 0.13 -0.23 0.18 -0.18 S 134.38 78.92 134.33 78.87 Z m 0.55 0 c -0.7 -0.41 0.49 0.08 0.36 0.18 S 134.91 78.89 134.88 78.87 Z m 13.34 0.91 c 0 -0.21 -0.05 -0.32 -0.19 -0.36 c 0.18 -0.19 0.36 -0.37 0.55 -0.55 c -0.22 -0.26 -0.7 -0.28 -0.92 -0.55 a 1.84 1.84 0 0 0 -1.09 0.55 c -0.16 -0.2 -0.18 -0.29 -0.12 -0.35 h -5.79 a 4.73 4.73 0 0 0 -0.3 1.26 c -0.64 -0.48 -0.05 0.8 -0.73 0.73 c 0 0.15 0.13 0.45 0.17 0.69 h 3.09 c -0.2 -0.24 -0.2 -0.64 0.21 -0.69 c -0.1 -0.37 -0.55 -0.36 -0.18 -0.73 a 1 1 0 0 1 0.73 -0.18 c 0.58 0.15 -0.33 0.24 -0.55 0.18 v 0.37 c 0 0.23 0.54 0.24 0.55 0 c 0.18 0.09 -0.07 0.87 -0.5 1 H 146 a 6.3 6.3 0 0 1 -0.18 -0.69 h 0.55 c 0.12 0.41 -0.1 0.48 -0.17 0.69 h 1.24 a 1.4 1.4 0 0 0 0 -0.69 c 1.14 0.35 0.64 -0.21 0.74 -0.54 c 0.51 -0.18 0.35 0.32 0.36 0.65 l 0.48 -1 C 148.88 79.39 148.5 79.88 148.22 79.78 Z m -5.12 -0.91 c 0 -0.18 0.22 -0.14 0.37 -0.18 C 143.46 78.86 143.24 78.83 143.1 78.87 Z M 144 80 c 0.05 -0.23 0.37 -0.19 0.37 0 C 144.22 80.08 144.05 80.19 144 80 Z m 0.92 -1.1 a 0.19 0.19 0 0 1 0 0.37 c 0.11 0.18 0.42 0.18 0.36 0.54 C 144.75 79.82 144.65 79.13 144.93 78.87 Z m 0.54 1.82 c -0.49 -0.55 0.56 0.51 0 0 Z m 0 -0.72 c -0.09 -0.1 0.14 -0.24 0.19 -0.19 S 145.52 80 145.47 80 Z m 1.83 0.18 c -0.32 -0.34 -0.46 0.15 -1.09 0 c -0.06 -0.42 0.52 -0.2 0.54 -0.55 s 0 -0.32 -0.18 -0.36 c 0 -0.22 0.33 -0.16 0.55 -0.19 C 147 79.61 147.44 79.59 147.3 80.15 Z" stroke-linecap="round" />
</g>
</g>
</g>
</g>
</g>
<g transform="matrix(1 0 0 1 252.520071653437 255.3096962942142)" style=""  ><path fill="#000000" opacity="1" d="M-175.07-16.04C-173.97-16.04-172.93-16.09-171.83-16.09C-165.62-16.09-162.98-14.11-162.98-9.00C-162.98-4.55-165.62-2.14-171.88-2.14C-172.93-2.14-174.03-2.19-175.07-2.19ZM-191.56-22.30L-191.67-15.10L-190.24-15.43C-188.81-15.71-187.05-15.82-186.06-15.82L-186.06 10.67C-187.05 10.67-188.92 10.61-190.35 10.34L-191.67 10.12L-191.56 17.32L-180.57 17.15L-169.58 17.32L-169.47 10.12L-170.78 10.34C-172.21 10.61-174.08 10.67-175.07 10.67L-175.07 3.85C-172.32 3.91-169.58 4.07-166.77 4.07C-157.71 4.07-151.99-0.71-151.99-9.39C-151.99-18.07-157.71-22.85-166.77-22.85C-166.99-22.85-174.36-22.69-174.58-22.69Z"/><path fill="#000000" opacity="1" d="M-106.93-22.36L-114.63-22.19L-122.32-22.36L-122.43-15.27L-121.11-15.43C-119.68-15.60-118.91-15.71-117.92-15.71L-117.92 1.27L-137.05-22.36L-142.10-22.19L-149.79-22.41L-149.90-17.08L-148.58-16.70C-146.50-16.09-145.40-14.61-145.40-11.86L-145.40 10.67C-146.39 10.67-147.16 10.56-148.58 10.39L-149.90 10.23L-149.79 17.32L-142.10 17.21L-134.41 17.32L-134.30 10.23L-135.62 10.39C-137.05 10.56-137.81 10.67-138.80 10.67L-138.80-6.70L-119.41 17.26L-117.92 17.26C-117.70 17.26-111.33 17.43-111.33 17.43L-111.33-15.71C-110.34-15.71-109.57-15.60-108.14-15.43L-106.82-15.27Z"/><path fill="#000000" opacity="1" d="M-88.25-16.04C-87.15-16.04-86.11-16.09-85.01-16.09C-78.80-16.09-76.16-14.11-76.16-9.00C-76.16-4.55-78.80-2.14-85.06-2.14C-86.11-2.14-87.21-2.19-88.25-2.19ZM-104.73-22.30L-104.84-15.10L-103.42-15.43C-101.99-15.71-100.23-15.82-99.24-15.82L-99.24 10.67C-100.23 10.67-102.10 10.61-103.53 10.34L-104.84 10.12L-104.73 17.32L-93.74 17.15L-82.75 17.32L-82.64 10.12L-83.96 10.34C-85.39 10.61-87.26 10.67-88.25 10.67L-88.25 3.85C-85.50 3.91-82.75 4.07-79.95 4.07C-70.89 4.07-65.17-0.71-65.17-9.39C-65.17-18.07-70.89-22.85-79.95-22.85C-80.17-22.85-87.54-22.69-87.76-22.69Z"/><path fill="#000000" opacity="1" d="M-40.99-6.09C-40.99-6.09-49.78-5.82-51.98-5.82C-54.18-5.82-62.97-6.09-62.97-6.09L-62.97 1.05C-62.97 1.05-54.18 0.78-51.98 0.78C-49.78 0.78-40.99 1.05-40.99 1.05Z"/><path fill="#000000" opacity="1" d="M-22.31-16.04C-21.21-16.04-20.17-16.09-19.07-16.09C-12.86-16.09-10.22-14.11-10.22-9.00C-10.22-4.55-12.86-2.14-19.12-2.14C-20.17-2.14-21.27-2.19-22.31-2.19ZM-38.79-22.30L-38.90-15.10L-37.48-15.43C-36.05-15.71-34.29-15.82-33.30-15.82L-33.30 10.67C-34.29 10.67-36.16 10.61-37.59 10.34L-38.90 10.12L-38.79 17.32L-27.80 17.15L-16.81 17.32L-16.70 10.12L-18.02 10.34C-19.45 10.61-21.32 10.67-22.31 10.67L-22.31 3.85C-19.56 3.91-16.81 4.07-14.01 4.07C-4.95 4.07 0.77-0.71 0.77-9.39C0.77-18.07-4.95-22.85-14.01-22.85C-14.23-22.85-21.60-22.69-21.82-22.69Z"/><path fill="#000000" opacity="1" d="M42.53-2.52C42.53-15.71 35.61-22.85 22.75-22.85C9.89-22.85 2.97-15.71 2.97-2.52C2.97 10.67 9.89 17.81 22.75 17.81C35.61 17.81 42.53 10.67 42.53-2.52ZM31.54-2.52C31.54 6.38 28.85 11.22 23.85 11.22C17.42 11.22 13.96 6.38 13.96-2.52C13.96-11.42 16.65-16.26 21.65-16.26C28.08-16.26 31.54-11.42 31.54-2.52Z"/><path fill="#000000" opacity="1" d="M106.82-22.36L100.23-22.25L93.36-22.36L93.25-15.49L94.40-15.60C94.90-15.65 95.61-15.71 96.05-15.71L89.02-0.16L82.10-15.54L84.29-15.38L84.18-22.36L75.12-22.19L66.76-22.36L66.65-15.49L67.92-15.60C68.41-15.65 69.62-15.71 70.01-15.71L70.39-14.83L63.74-0.16L53.80-22.36L50.44-22.25L42.20-22.36L42.09-15.27C42.53-15.32 43.30-15.49 43.85-15.49C44.62-15.49 45.00-15.10 45.66-13.56L59.40 17.26C59.40 17.26 62.09 17.26 63.03 17.70L73.96-6.70L84.68 17.26C84.68 17.26 87.37 17.26 88.30 17.70L102.48-13.84C103.09-15.16 103.47-15.60 104.57-15.60C105.23-15.60 106.22-15.43 106.93-15.32Z"/><path fill="#000000" opacity="1" d="M144.85-23.40C144.85-23.40 126.22-22.30 121.82-22.30L108.69-22.30L108.42-15.10L109.74-15.32C111.16-15.60 111.99-15.71 112.98-15.71L112.98 10.67C111.99 10.67 111.22 10.50 109.79 10.28L108.47 10.06L108.75 17.26L121.77 17.26C126.17 17.26 146.50 18.36 146.50 18.36L147.93 2.10L140.34 1.33C138.91 10.06 134.35 10.67 127.65 10.67L123.97 10.67L123.97-0.32C127.87-0.32 129.24 2.87 131.17 6.16L133.80 5.06L133.80-9.00L131.17-10.65C129.24-7.36 127.98-4.72 123.97-4.72L123.97-15.71L127.32-15.71C133.91-15.71 137.32-15.21 138.47-8.02L146.06-8.78Z"/><path fill="#000000" opacity="1" d="M150.34-22.30L150.23-15.10L151.66-15.43C153.09-15.71 154.85-15.82 155.84-15.82L155.84 10.67C154.85 10.67 152.98 10.61 151.55 10.34L150.23 10.12L150.34 17.32L161.33 17.15L171.22 17.32L171.33 10.23L170.02 10.39C168.59 10.56 167.82 10.67 166.83 10.67L166.83 1.99L167.49 2.10C171.28 2.76 174.08 6.16 176.28 9.73C178.92 13.96 181.01 18.36 186.34 18.36C188.26 18.36 190.29 17.92 192.11 17.26L191.94 6.27C190.79 6.66 189.80 7.10 188.86 7.10C185.18 7.10 183.04 1.66 176.22 0.56C183.70-0.43 188.81-4.55 188.81-11.04C188.81-18.29 182.93-22.85 174.03-22.85C173.81-22.85 166.94-22.69 166.72-22.69ZM166.83-16.04C167.87-16.04 168.92-16.09 169.96-16.09C175.18-16.09 177.82-13.89 177.82-10.10C177.82-5.76 175.07-3.78 170.02-3.78C168.97-3.78 167.87-3.84 166.83-3.84Z"/></g><g transform="matrix(0.6623457396687578 -0.11889457093700395 -0.09278880420246412 -0.5169140076633454 38.00000000000009 226.0000000000004)"  >
<path style="stroke: none; stroke-width: 0; stroke-dasharray: none; stroke-linecap: butt; stroke-dashoffset: 0; stroke-linejoin: miter; stroke-miterlimit: 4; fill: rgb(0,0,0); fill-rule: nonzero; opacity: 1;"  transform=" translate(-49.999880000000005, -50.013526662967685)" d="m 67 43.301 c -0.30078 -0.5 -0.80078 -0.69922 -1.3008 -0.69922 h -10.199 l 5.8008 -30.801 c 0.10156 -0.69922 -0.30078 -1.3984 -0.89844 -1.6992 c -0.69922 -0.19922 -1.3984 0 -1.8008 0.60156 l -25.602 44.496 c -0.30078 0.5 -0.30078 1 0 1.5 s 0.80078 0.69922 1.3008 0.69922 h 10.199 l -5.8008 30.801 c -0.10156 0.69922 0.30078 1.3984 0.89844 1.6992 c 0.19922 0.10156 0.30078 0.10156 0.5 0.10156 c 0.5 0 1 -0.30078 1.3008 -0.69922 l 25.602 -44.5 c 0.30078 -0.5 0.30078 -1 0 -1.5 z m -23.898 37 l 4.5 -24.102 v -0.10156 v -0.10156 v -0.19922 c 0 -0.10156 0 -0.19922 -0.10156 -0.30078 c 0 -0.10156 -0.10156 -0.19922 -0.10156 -0.30078 c 0 -0.10156 -0.10156 -0.19922 -0.19922 -0.19922 l -0.19922 -0.19922 c -0.10156 -0.10156 -0.10156 -0.10156 -0.19922 -0.19922 c -0.10156 0 -0.19922 -0.10156 -0.30078 -0.10156 s -0.10156 0 -0.10156 -0.10156 h -0.10156 h -0.10156 h -9.3984 l 20.102 -34.699 l -4.5 24.102 v 0.10156 v 0.10156 v 0.19922 c 0 0.10156 0 0.19922 0.10156 0.30078 c 0 0.10156 0.10156 0.19922 0.10156 0.30078 c 0 0.10156 0.10156 0.19922 0.19922 0.19922 c 0.10156 0.10156 0.10156 0.10156 0.19922 0.19922 l 0.19922 0.19922 c 0.10156 0 0.19922 0.10156 0.30078 0.10156 s 0.10156 0 0.10156 0.10156 h 0.10156 h 0.10156 h 9.3984 z" stroke-linecap="round" />
</g>
<g transform="matrix(0.6364426342963729 0.2545386373637932 -0.19371458579875517 0.48435955564256356 471.99999999999966 263.0596962942139)"  >
<path style="stroke: none; stroke-width: 0; stroke-dasharray: none; stroke-linecap: butt; stroke-dashoffset: 0; stroke-linejoin: miter; stroke-miterlimit: 4; fill: rgb(0,0,0); fill-rule: nonzero; opacity: 1;"  transform=" translate(-49.999880000000005, -50.013526662967685)" d="m 67 43.301 c -0.30078 -0.5 -0.80078 -0.69922 -1.3008 -0.69922 h -10.199 l 5.8008 -30.801 c 0.10156 -0.69922 -0.30078 -1.3984 -0.89844 -1.6992 c -0.69922 -0.19922 -1.3984 0 -1.8008 0.60156 l -25.602 44.496 c -0.30078 0.5 -0.30078 1 0 1.5 s 0.80078 0.69922 1.3008 0.69922 h 10.199 l -5.8008 30.801 c -0.10156 0.69922 0.30078 1.3984 0.89844 1.6992 c 0.19922 0.10156 0.30078 0.10156 0.5 0.10156 c 0.5 0 1 -0.30078 1.3008 -0.69922 l 25.602 -44.5 c 0.30078 -0.5 0.30078 -1 0 -1.5 z m -23.898 37 l 4.5 -24.102 v -0.10156 v -0.10156 v -0.19922 c 0 -0.10156 0 -0.19922 -0.10156 -0.30078 c 0 -0.10156 -0.10156 -0.19922 -0.10156 -0.30078 c 0 -0.10156 -0.10156 -0.19922 -0.19922 -0.19922 l -0.19922 -0.19922 c -0.10156 -0.10156 -0.10156 -0.10156 -0.19922 -0.19922 c -0.10156 0 -0.19922 -0.10156 -0.30078 -0.10156 s -0.10156 0 -0.10156 -0.10156 h -0.10156 h -0.10156 h -9.3984 l 20.102 -34.699 l -4.5 24.102 v 0.10156 v 0.10156 v 0.19922 c 0 0.10156 0 0.19922 0.10156 0.30078 c 0 0.10156 0.10156 0.19922 0.10156 0.30078 c 0 0.10156 0.10156 0.19922 0.19922 0.19922 c 0.10156 0.10156 0.10156 0.10156 0.19922 0.19922 l 0.19922 0.19922 c 0.10156 0 0.19922 0.10156 0.30078 0.10156 s 0.10156 0 0.10156 0.10156 h 0.10156 h 0.10156 h 9.3984 z" stroke-linecap="round" />
</g>
</svg>